<svg width="22" height="23" viewBox="0 0 22 23" fill="none" xmlns="http://www.w3.org/2000/svg">
<path d="M19.0596 7.42802L18.0626 7.50511V7.50512L19.0596 7.42802ZM20.0364 20.0596L19.0394 20.1367L20.0364 20.0596ZM1.97781 20.0596L2.97483 20.1367L1.97781 20.0596ZM2.95458 7.42802L1.95755 7.35092L1.95755 7.35092L2.95458 7.42802ZM5.44886 11.2231C5.44886 11.7754 5.89658 12.2231 6.44886 12.2231C7.00115 12.2231 7.44886 11.7754 7.44886 11.2231H5.44886ZM14.5654 11.2231C14.5654 11.7754 15.0131 12.2231 15.5654 12.2231C16.1176 12.2231 16.5654 11.7754 16.5654 11.2231H14.5654ZM4.09124 7.45038H17.923V5.45038H4.09124V7.45038ZM18.0626 7.50512L19.0394 20.1367L21.0334 19.9825L20.0567 7.35092L18.0626 7.50512ZM18.8997 20.1872H3.11447V22.1872H18.8997V20.1872ZM2.97483 20.1367L3.9516 7.50512L1.95755 7.35092L0.980785 19.9825L2.97483 20.1367ZM3.11447 20.1872C3.04708 20.1872 3.00444 20.1615 2.98475 20.142C2.97514 20.1325 2.97305 20.1266 2.97344 20.1276C2.97432 20.1298 2.97502 20.1342 2.97483 20.1367L0.980785 19.9825C0.88243 21.2544 1.95566 22.1872 3.11447 22.1872V20.1872ZM19.0394 20.1367C19.0392 20.1342 19.0399 20.1298 19.0408 20.1276C19.0412 20.1266 19.0391 20.1325 19.0295 20.142C19.0098 20.1615 18.9671 20.1872 18.8997 20.1872V22.1872C20.0586 22.1872 21.1318 21.2544 21.0334 19.9825L19.0394 20.1367ZM17.923 7.45038C17.9832 7.45038 18.0252 7.47167 18.0475 7.49078C18.0687 7.50902 18.0634 7.51569 18.0626 7.50511L20.0567 7.35092C19.9688 6.21446 18.9756 5.45038 17.923 5.45038V7.45038ZM4.09124 5.45038C3.03859 5.45038 2.04543 6.21447 1.95755 7.35092L3.9516 7.50512C3.95078 7.51569 3.94556 7.50902 3.96676 7.49078C3.98899 7.47167 4.031 7.45038 4.09124 7.45038V5.45038ZM7.44886 5.39775C7.44886 3.69786 8.96575 2.18723 11.0071 2.18723V0.187225C8.01357 0.187225 5.44886 2.44682 5.44886 5.39775H7.44886ZM11.0071 2.18723C13.0485 2.18723 14.5654 3.69786 14.5654 5.39775H16.5654C16.5654 2.44682 14.0007 0.187225 11.0071 0.187225V2.18723ZM5.44886 5.39775V11.2231H7.44886V5.39775H5.44886ZM14.5654 5.39775V11.2231H16.5654V5.39775H14.5654Z" fill="#3C2B1F"/>
</svg>
