<svg width="400" height="130" viewBox="0 0 400 130" fill="none" xmlns="http://www.w3.org/2000/svg">
<g clip-path="url(#clip0_184_3777)">
<path d="M63.4601 116.165C63.0812 115.727 62.6439 115.378 62.0901 115.144C61.5654 114.911 60.9532 114.795 60.2536 114.795C59.554 114.795 58.8835 114.94 58.3005 115.203C57.7175 115.465 57.1928 115.844 56.7556 116.34C56.3183 116.806 55.9685 117.389 55.7353 118.06C55.5021 118.73 55.3855 119.459 55.3855 120.246C55.3855 121.033 55.5021 121.791 55.7353 122.461C55.9977 123.103 56.3475 123.685 56.7556 124.181C57.1928 124.647 57.6884 125.026 58.2714 125.318C58.8544 125.58 59.4957 125.726 60.1661 125.726C60.9241 125.726 61.6237 125.58 62.2067 125.26C62.7897 124.939 63.2852 124.502 63.6642 123.919L66.7833 126.251C66.0545 127.242 65.1508 128 64.0431 128.466C62.9354 128.933 61.7986 129.195 60.6326 129.195C59.3208 129.195 58.0965 128.991 56.9596 128.583C55.8519 128.175 54.8899 127.592 54.0737 126.805C53.2575 126.018 52.6162 125.085 52.1498 123.977C51.7126 122.869 51.4794 121.645 51.4794 120.304C51.4794 118.963 51.7126 117.71 52.1498 116.631C52.6162 115.523 53.2575 114.591 54.0737 113.833C54.8899 113.046 55.8519 112.463 56.9596 112.025C58.0673 111.617 59.2916 111.413 60.6326 111.413C61.099 111.413 61.5945 111.472 62.1192 111.559C62.6439 111.646 63.1686 111.763 63.6642 111.967C64.1889 112.171 64.6553 112.404 65.1217 112.725C65.5881 113.046 65.9962 113.425 66.3752 113.891L63.4893 116.223L63.4601 116.165Z" fill="#3C2B1F"/>
<path d="M79.8134 120.246C79.8134 118.876 80.0466 117.651 80.4839 116.573C80.9503 115.465 81.5916 114.532 82.4078 113.774C83.224 112.987 84.186 112.404 85.2937 111.967C86.4014 111.559 87.6257 111.355 88.9666 111.355C90.3075 111.355 91.5027 111.559 92.6395 111.967C93.7473 112.375 94.7092 112.987 95.5254 113.774C96.3416 114.532 96.9829 115.465 97.4202 116.573C97.8866 117.681 98.1198 118.905 98.1198 120.246C98.1198 121.587 97.8866 122.84 97.4202 123.919C96.9829 125.026 96.3416 125.959 95.5254 126.746C94.7092 127.504 93.7473 128.116 92.6395 128.524C91.5318 128.933 90.3075 129.137 88.9666 129.137C87.6257 129.137 86.4305 128.933 85.2937 128.524C84.186 128.116 83.224 127.533 82.4078 126.746C81.5916 125.959 80.9503 125.026 80.4839 123.919C80.0466 122.811 79.8134 121.587 79.8134 120.246ZM83.6904 120.246C83.6904 121.033 83.807 121.791 84.0402 122.461C84.3026 123.102 84.6524 123.685 85.1188 124.181C85.5852 124.647 86.139 125.026 86.7803 125.318C87.4216 125.58 88.1504 125.726 88.9666 125.726C89.7828 125.726 90.4824 125.58 91.1237 125.318C91.765 125.056 92.348 124.677 92.7853 124.181C93.2517 123.685 93.6015 123.102 93.8347 122.461C94.0971 121.791 94.2137 121.062 94.2137 120.246C94.2137 119.43 94.0971 118.73 93.8347 118.059C93.6015 117.389 93.2517 116.806 92.7853 116.34C92.3189 115.844 91.765 115.465 91.1237 115.203C90.4824 114.94 89.7537 114.795 88.9666 114.795C88.1796 114.795 87.4508 114.94 86.7803 115.203C86.139 115.465 85.5852 115.844 85.1188 116.34C84.6524 116.806 84.3026 117.389 84.0402 118.059C83.807 118.73 83.6904 119.459 83.6904 120.246Z" fill="#3C2B1F"/>
<path d="M112.753 111.763H124.122V115.203H116.484V118.643H123.539V122.082H116.484V128.699H112.753V111.763Z" fill="#3C2B1F"/>
<path d="M138.93 111.763H150.299V115.203H142.661V118.643H149.716V122.082H142.661V128.699H138.93V111.763Z" fill="#3C2B1F"/>
<path d="M165.078 111.763H176.592V115.203H168.809V118.351H176.155V121.791H168.809V125.23H177.03V128.67H165.078V111.734V111.763Z" fill="#3C2B1F"/>
<path d="M192.129 111.763H203.644V115.203H195.861V118.351H203.206V121.791H195.861V125.23H204.081V128.67H192.129V111.734V111.763Z" fill="#3C2B1F"/>
<path d="M219.006 111.763H222.737V118.089H229.996V111.763H233.727V128.699H229.996V121.383H222.737V128.699H219.006V111.763Z" fill="#3C2B1F"/>
<path d="M248.244 120.246C248.244 118.876 248.477 117.651 248.914 116.573C249.381 115.465 250.022 114.532 250.838 113.774C251.654 112.987 252.616 112.404 253.724 111.967C254.832 111.559 256.056 111.355 257.397 111.355C258.738 111.355 259.933 111.559 261.07 111.967C262.177 112.375 263.139 112.987 263.956 113.774C264.772 114.532 265.413 115.465 265.85 116.573C266.317 117.681 266.55 118.905 266.55 120.246C266.55 121.587 266.317 122.84 265.85 123.919C265.413 125.026 264.772 125.959 263.956 126.746C263.139 127.504 262.177 128.116 261.07 128.524C259.962 128.933 258.738 129.137 257.397 129.137C256.056 129.137 254.861 128.933 253.724 128.524C252.616 128.116 251.654 127.533 250.838 126.746C250.022 125.959 249.381 125.026 248.914 123.919C248.477 122.811 248.244 121.587 248.244 120.246ZM252.121 120.246C252.121 121.033 252.237 121.791 252.47 122.461C252.733 123.102 253.083 123.685 253.549 124.181C254.015 124.647 254.569 125.026 255.211 125.318C255.852 125.58 256.581 125.726 257.397 125.726C258.213 125.726 258.913 125.58 259.554 125.318C260.195 125.056 260.778 124.677 261.216 124.181C261.682 123.685 262.032 123.102 262.265 122.461C262.527 121.791 262.644 121.062 262.644 120.246C262.644 119.43 262.527 118.73 262.265 118.059C262.032 117.389 261.682 116.806 261.216 116.34C260.749 115.844 260.195 115.465 259.554 115.203C258.913 114.94 258.184 114.795 257.397 114.795C256.61 114.795 255.881 114.94 255.211 115.203C254.569 115.465 254.015 115.844 253.549 116.34C253.083 116.806 252.733 117.389 252.47 118.059C252.237 118.73 252.121 119.459 252.121 120.246Z" fill="#3C2B1F"/>
<path d="M295.321 121.966C295.321 122.957 295.176 123.89 294.855 124.735C294.563 125.58 294.097 126.309 293.485 126.95C292.902 127.563 292.144 128.058 291.269 128.408C290.366 128.758 289.346 128.933 288.18 128.933C287.013 128.933 285.964 128.758 285.06 128.408C284.157 128.058 283.428 127.563 282.816 126.95C282.233 126.338 281.766 125.58 281.475 124.735C281.183 123.89 281.009 122.957 281.009 121.966V111.559H284.74V121.82C284.74 122.345 284.827 122.84 284.973 123.277C285.148 123.715 285.381 124.123 285.702 124.443C285.993 124.764 286.372 125.026 286.78 125.201C287.218 125.376 287.684 125.464 288.18 125.464C288.675 125.464 289.141 125.376 289.55 125.201C289.958 124.997 290.337 124.764 290.628 124.443C290.92 124.123 291.153 123.715 291.328 123.277C291.503 122.84 291.59 122.345 291.59 121.82V111.559H295.321V121.966Z" fill="#3C2B1F"/>
<path d="M319.108 115.902C318.816 115.523 318.379 115.232 317.854 115.057C317.33 114.853 316.863 114.765 316.397 114.765C316.135 114.765 315.843 114.795 315.552 114.853C315.26 114.911 314.998 115.028 314.735 115.174C314.473 115.29 314.269 115.465 314.123 115.698C313.948 115.932 313.89 116.194 313.89 116.515C313.89 117.039 314.094 117.418 314.473 117.681C314.852 117.943 315.348 118.176 315.901 118.38C316.484 118.584 317.126 118.759 317.796 118.963C318.467 119.167 319.079 119.43 319.662 119.779C320.245 120.129 320.74 120.596 321.119 121.179C321.498 121.762 321.702 122.549 321.702 123.54C321.702 124.531 321.527 125.289 321.178 126.018C320.828 126.717 320.361 127.3 319.749 127.767C319.166 128.233 318.467 128.583 317.68 128.787C316.893 129.02 316.076 129.107 315.202 129.107C314.094 129.107 313.074 128.933 312.141 128.612C311.208 128.291 310.334 127.737 309.518 126.979L312.17 124.064C312.549 124.589 313.045 124.968 313.599 125.26C314.182 125.522 314.794 125.668 315.406 125.668C315.697 125.668 316.018 125.639 316.31 125.58C316.63 125.493 316.893 125.376 317.155 125.26C317.417 125.114 317.621 124.939 317.767 124.706C317.913 124.473 318 124.21 318 123.919C318 123.394 317.796 123.015 317.417 122.724C317.038 122.432 316.543 122.17 315.96 121.966C315.377 121.762 314.735 121.557 314.036 121.353C313.336 121.149 312.724 120.858 312.112 120.508C311.529 120.158 311.033 119.692 310.625 119.109C310.246 118.526 310.042 117.768 310.042 116.835C310.042 115.902 310.217 115.115 310.567 114.445C310.946 113.745 311.412 113.191 311.995 112.725C312.607 112.259 313.307 111.909 314.065 111.705C314.852 111.472 315.639 111.355 316.484 111.355C317.446 111.355 318.379 111.501 319.254 111.763C320.157 112.025 320.944 112.492 321.673 113.133L319.108 115.931V115.902Z" fill="#3C2B1F"/>
<path d="M336.598 111.763H348.112V115.203H340.329V118.351H347.675V121.791H340.329V125.23H348.55V128.67H336.598V111.734V111.763Z" fill="#3C2B1F"/>
<path d="M30.5495 4.02365C35.5925 4.02365 39.9942 4.95645 43.7545 6.79292C47.5149 8.62938 50.4008 11.2238 52.383 14.5469C54.4235 17.8117 55.4438 21.543 55.4438 25.7406C55.4438 30.4046 54.3361 34.3691 52.0915 37.6047C49.847 40.7821 46.9319 43.2308 43.2881 44.8923C39.6444 46.4956 35.7674 47.2826 31.5989 47.2826H14.9541V72.9349C14.9541 73.2555 15.2164 73.5179 15.712 73.6928C16.2367 73.8969 16.7031 73.9843 17.1404 73.9843V75.7916H0V73.9843C0.437254 73.9843 0.932808 73.8969 1.42836 73.6928C1.95307 73.4887 2.18627 73.2555 2.18627 72.9349V6.88036C2.18627 6.55971 1.92392 6.29737 1.42836 6.12247C0.991109 5.91842 0.524705 5.83097 0.0874508 5.83097V4.02365H30.5495ZM32.3568 35.127C34.6014 35.127 36.5836 34.6606 38.3034 33.6986C40.0233 32.6784 41.3351 31.3958 42.2387 29.8799C43.1424 28.335 43.5796 26.7608 43.5796 25.0993C43.5796 22.6215 42.5302 20.4061 40.4314 18.4822C38.3326 16.5583 35.6799 15.5963 32.4734 15.5963H14.9541V35.127H32.3859H32.3568Z" fill="#3C2B1F"/>
<path d="M126.541 73.1389C126.745 73.722 127.503 74.0135 128.844 74.0135V75.8208H109.401V74.0135C110.217 74.0135 110.8 73.8094 111.121 73.4304C111.441 73.0515 111.5 72.6725 111.325 72.2936L106.049 58.797H74.8287L69.5525 72.2936L69.4651 72.5851C69.4651 72.964 69.6108 73.3138 69.9315 73.6345C70.3104 73.8969 70.806 74.0135 71.3599 74.0135V75.8208H52.4996V74.0135C53.7822 74.0135 54.5402 73.722 54.8025 73.1389L81.4167 8.42536C81.6208 8.04641 81.7082 7.6966 81.7082 7.37595C81.7082 6.79294 81.4459 6.41399 80.9503 6.23909C80.4256 5.97674 79.9009 5.86012 79.3179 5.86012V4.05282H101.618V5.86012C101.035 5.86012 100.51 5.97674 99.9854 6.23909C99.4607 6.44314 99.2275 6.82209 99.2275 7.37595C99.2275 7.6966 99.315 8.04641 99.519 8.42536L126.512 73.1389H126.541ZM90.4533 18.9486L79.143 47.7782H101.734L90.4241 18.9486H90.4533Z" fill="#3C2B1F"/>
<path d="M179.682 34.8355C181.781 35.4768 183.909 36.7303 186.008 38.5667C188.165 40.3449 189.972 42.6478 191.371 45.4462C192.829 48.2446 193.587 51.3929 193.587 54.8326C193.587 58.5347 192.683 61.9744 190.905 65.1809C189.127 68.3583 186.474 70.9527 182.947 72.9349C179.449 74.8588 175.251 75.8208 170.412 75.8208H140.067V74.0135C140.504 74.0135 140.971 73.926 141.408 73.7219C141.933 73.5179 142.166 73.2847 142.166 72.9641V6.90953C142.166 6.58888 141.903 6.32652 141.408 6.15162C140.971 5.94757 140.504 5.86012 140.067 5.86012V4.05282H162.192C166.477 4.05282 170.238 4.86902 173.502 6.53059C176.826 8.13385 179.362 10.3784 181.169 13.3226C183.005 16.2085 183.938 19.4733 183.938 23.1754C183.938 27.956 182.539 31.8622 179.711 34.8647L179.682 34.8355ZM154.613 32.2411H160.647C164.612 32.2411 167.323 31.4832 168.78 29.9383C170.325 28.335 171.083 26.1487 171.083 23.3212C171.083 21.0766 170.092 19.211 168.11 17.666C166.186 16.0627 163.708 15.2757 160.647 15.2757H154.613V32.2411ZM167.643 64.5105C172.482 64.5105 175.951 63.5194 177.992 61.5371C180.09 59.5549 181.14 57.1937 181.14 54.4536C181.14 51.7135 180.236 49.0608 178.458 46.9037C176.68 44.6591 173.619 43.5514 169.276 43.5514H154.642V64.5105H167.672H167.643Z" fill="#3C2B1F"/>
<path d="M250.663 62.1201V77.8321H248.856C248.856 77.4532 248.768 77.0159 248.564 76.4912C248.36 76.054 248.127 75.8208 247.806 75.8208H202.332V74.0135C202.769 74.0135 203.236 73.926 203.673 73.7219C204.198 73.5179 204.431 73.2847 204.431 72.9641V6.90953C204.431 6.58888 204.168 6.32652 203.673 6.15162C203.148 5.94757 202.682 5.86012 202.245 5.86012V4.05282H219.472V5.86012C219.035 5.86012 218.54 5.94757 218.044 6.15162C217.519 6.35567 217.286 6.58888 217.286 6.90953V64.1607H247.836C248.156 64.1607 248.419 63.9275 248.593 63.4902C248.797 62.9655 248.885 62.5283 248.885 62.1493H250.692L250.663 62.1201Z" fill="#3C2B1F"/>
<path d="M374.144 77.6281C368.663 77.6281 363.562 76.3455 358.84 73.8094C354.117 71.1859 349.541 67.6295 345.139 63.0821C345.023 62.9655 344.848 62.878 344.673 62.878C344.09 62.878 343.448 63.2278 342.749 63.9274L341.495 62.5865L354.817 50.0519L356.07 51.3928C355.692 51.7135 355.342 52.1507 355.021 52.7337C354.7 53.3167 354.642 53.7249 354.817 53.9872C360.764 61.508 367.235 65.2975 374.26 65.2975C376.68 65.2975 378.866 64.8311 380.761 63.8691C382.743 62.9072 384.259 61.712 385.366 60.2254C386.445 58.6804 386.999 57.1354 386.999 55.5322C386.999 51.7718 383.705 48.6818 377.146 46.2332L365.369 41.8316C360.647 40.1117 356.945 37.7505 354.263 34.748C351.64 31.7456 350.328 28.1309 350.328 23.9333C350.328 19.7356 351.29 16.1793 353.214 13.1185C355.196 9.99946 357.965 7.60912 361.551 5.94755C365.136 4.28599 369.276 3.46978 373.998 3.46978C378.458 3.46978 382.189 4.16939 385.192 5.56861C388.252 6.90952 391.517 8.97918 394.957 11.7776C395.015 11.8359 395.161 11.8651 395.336 11.8651C395.657 11.8651 396.006 11.7776 396.385 11.5736C396.823 11.3112 397.172 11.0489 397.435 10.8157L398.688 12.0691L386.824 23.7584L385.571 22.4175C385.891 22.0968 386.124 21.747 386.241 21.368C386.445 20.9308 386.387 20.6102 386.154 20.4061C382.014 17.083 377.875 15.4214 373.794 15.4214C370.529 15.4214 367.964 16.1793 366.04 17.7243C364.116 19.1818 363.154 21.0765 363.154 23.3794C363.154 25.4199 363.679 26.9941 364.699 28.0726C365.778 29.1512 367.41 30.084 369.567 30.8419L381.14 35.0687C385.162 36.5262 388.515 38.1003 391.197 39.7619C393.878 41.3651 396.006 43.4931 397.61 46.1749C399.213 48.7985 400 52.0924 400 56.0277C400 59.963 398.98 63.4319 396.939 66.755C394.957 70.0198 391.984 72.6725 388.048 74.7131C384.142 76.6953 379.536 77.6864 374.173 77.6864L374.144 77.6281Z" fill="#3C2B1F"/>
<path d="M343.099 17.8992C339.805 21.1932 334.441 21.1932 331.118 17.8992C327.824 14.6052 327.824 9.24156 331.118 5.91843L337.094 -0.0573883L343.069 5.91843C346.363 9.21241 346.363 14.5761 343.069 17.8992H343.099Z" fill="#3C2B1F"/>
<path d="M328.174 39.0914C328.174 59.8173 311.383 76.6078 290.657 76.6078C269.931 76.6078 253.141 59.8173 253.141 39.0914C253.141 18.3656 269.931 1.57502 290.657 1.57502C311.383 1.57502 328.174 18.3656 328.174 39.0914ZM290.657 13.2643C276.403 13.2643 264.83 24.8369 264.83 39.0914C264.83 53.3459 276.403 64.9186 290.657 64.9186C304.912 64.9186 316.484 53.3459 316.484 39.0914C316.484 24.8369 304.912 13.2643 290.657 13.2643Z" fill="#3C2B1F"/>
</g>
<defs>
<clipPath id="clip0_184_3777">
<rect width="400" height="129.251" fill="3C2B1F" transform="translate(0 0.374969)"/>
</clipPath>
</defs>
</svg>
