<svg width="86" height="117" viewBox="0 0 86 117" fill="none" xmlns="http://www.w3.org/2000/svg">
<g clip-path="url(#clip0_1_96)">
<path d="M43.0128 95.4716C63.49 95.4716 80.163 78.8124 80.163 58.3214C80.163 37.8304 63.5038 21.1712 43.0128 21.1712C22.5218 21.1712 5.86258 37.8304 5.86258 58.3214C5.86258 78.8124 22.5218 95.4716 43.0128 95.4716ZM43.7682 36.4021C44.2214 35.7291 45.0591 35.427 45.8557 35.633C53.327 37.5695 58.9991 46.9909 58.9991 58.3351C58.9991 67.1935 55.5381 74.8845 50.4566 78.7574C48.8634 79.966 46.7347 78.2905 47.5312 76.4639C49.5776 71.8356 50.9373 64.6802 44.5922 58.3351C36.036 49.7789 41.5158 39.7394 43.7544 36.4158M35.5553 37.9265C37.1484 36.7179 39.2772 38.3935 38.4669 40.2201C36.4205 44.8484 35.0609 52.0038 41.3922 58.3489C49.9484 66.9051 44.4823 76.9446 42.23 80.2682C41.7767 80.9549 40.939 81.2433 40.1424 81.0373C32.6712 79.1008 27.0128 69.6793 27.0128 58.3351C27.0128 49.4767 30.4737 41.7858 35.5553 37.9265Z" fill="#3C2B1F"/>
<path d="M43.0128 0.213226C19.3081 0.213226 0.0256653 19.4956 0.0256653 43.2004V73.4562C0.0256653 97.1609 19.3081 116.443 43.0128 116.443C66.7175 116.443 85.9999 97.1609 85.9999 73.4562V43.2004C85.9999 19.4956 66.7175 0.213226 43.0128 0.213226ZM82.278 73.4562C82.278 95.1008 64.6574 112.721 43.0128 112.721C21.3682 112.721 3.74755 95.1008 3.74755 73.4562V43.2004C3.74755 21.542 21.3682 3.93512 43.0128 3.93512C64.6574 3.93512 82.278 21.5557 82.278 43.2004V73.4562Z" fill="#3C2B1F"/>
<path d="M72.7055 95.7326C74.0514 93.9471 75.2325 92.0381 76.2351 90.0192H66.1407C62.7621 92.4913 58.9853 94.4278 54.9201 95.7326H72.7055Z" fill="#3C2B1F"/>
<path d="M8.80163 87.9042H17.2342C15.4351 86.3386 13.7733 84.6081 12.29 82.7265H7.04369C7.49691 84.5119 8.08747 86.2287 8.80163 87.9042Z" fill="#3C2B1F"/>
<path d="M73.7355 82.7265C72.2523 84.5944 70.5905 86.3248 68.7913 87.9042H77.2239C77.9244 86.2424 78.5149 84.5119 78.9819 82.7265H73.7355Z" fill="#3C2B1F"/>
<path d="M31.1055 95.7326C27.0403 94.4278 23.2634 92.4913 19.8849 90.0192H9.79047C10.793 92.0381 11.9742 93.9471 13.3201 95.7326H31.1055Z" fill="#3C2B1F"/>
<path d="M75.672 80.0759H79.5587C79.9433 77.9197 80.163 75.7085 80.163 73.4561V71.039C79.0506 74.2664 77.5398 77.3016 75.672 80.0896" fill="#3C2B1F"/>
<path d="M10.3536 80.0759C8.49949 77.2879 6.97502 74.2527 5.86258 71.0252V73.4424C5.86258 75.7085 6.08232 77.9197 6.46687 80.0621H10.3536V80.0759Z" fill="#3C2B1F"/>
<path d="M38.4943 97.3257H14.5973C16.575 99.6742 18.8274 101.762 21.3132 103.561H64.7261C67.2119 101.762 69.4643 99.6742 71.442 97.3257C71.442 97.3257 39.9776 97.4905 38.4943 97.3257Z" fill="#3C2B1F"/>
<path d="M22.8514 104.618C28.6609 108.395 35.5827 110.593 43.0128 110.593C50.4428 110.593 57.3647 108.395 63.1742 104.618H22.8514Z" fill="#3C2B1F"/>
<path d="M14.46 31.4029C16.5063 29.233 18.7999 27.2965 21.2857 25.6347C17.3716 25.3325 13.43 25.6759 9.79047 26.6098C8.44454 29.3016 7.41451 32.1858 6.74154 35.2072C9.03511 33.6141 11.6445 32.3368 14.46 31.4167" fill="#3C2B1F"/>
<path d="M51.4729 19.9763C54.5767 20.663 57.557 21.7205 60.345 23.0939C61.9381 19.1523 62.4463 15.1694 61.8557 11.2003C56.8428 8.24755 51.0883 6.42095 44.9493 6.10507C48.7398 10.033 51.0334 14.9497 51.4729 19.99" fill="#3C2B1F"/>
<path d="M27.7407 9.34627C23.8952 11.0905 20.393 13.4664 17.3716 16.3643C22.8102 16.6939 27.933 18.1909 32.1905 20.5806C34.9372 19.7978 37.7939 19.3034 40.7467 19.1385C37.7527 14.8124 33.2068 11.3652 27.7269 9.36001" fill="#3C2B1F"/>
<path d="M22.8239 24.6596C25.3098 23.1626 27.9742 21.9265 30.7759 21.0064C26.587 18.8501 21.6016 17.5591 16.3415 17.3806C14.048 19.7566 12.0566 22.421 10.4497 25.3325C14.4188 24.4124 18.6626 24.1789 22.8102 24.6596" fill="#3C2B1F"/>
<path d="M73.2823 21.7068C72.1836 24.1926 70.7965 26.6235 68.8875 28.8347C70.6591 30.4003 72.2935 32.1033 73.763 33.9574C75.2325 32.9411 76.6197 31.8012 77.9381 30.5514C76.7845 27.3789 75.2051 24.4124 73.2823 21.7068Z" fill="#3C2B1F"/>
<path d="M41.9965 19.0699C42.3398 19.0699 42.6694 19.0424 43.0128 19.0424C45.5261 19.0424 47.9845 19.2896 50.3742 19.7428C49.8523 14.7162 47.3802 9.82695 43.3836 6.05013C43.26 6.05013 43.1364 6.05013 42.999 6.05013C38.096 6.05013 33.4128 7.0115 29.1141 8.75571C34.5664 10.9806 39.0437 14.5926 41.9827 19.0836" fill="#3C2B1F"/>
<path d="M6.4394 36.7317C6.06858 38.833 5.86258 40.9892 5.86258 43.2003V45.6175C7.45571 40.9755 9.90034 36.7317 12.9905 33.0647C10.587 34.0261 8.37588 35.2621 6.4394 36.7317Z" fill="#3C2B1F"/>
<path d="M79.8197 38.2424C79.133 38.6956 78.3639 39.19 77.5398 39.6707C78.5699 41.566 79.4488 43.5574 80.163 45.6175V43.2004C80.163 41.5248 80.0394 39.863 79.8197 38.2424Z" fill="#3C2B1F"/>
<path d="M78.3089 31.6501C77.0729 32.7901 75.7682 33.8476 74.4085 34.7952C75.3561 36.0587 76.2351 37.3772 77.0179 38.7368C77.9793 38.1737 78.872 37.5969 79.6411 37.075C79.3252 35.2072 78.8857 33.3943 78.3089 31.6364" fill="#3C2B1F"/>
<path d="M61.2926 23.5746C63.7235 24.8656 66.0033 26.39 68.1046 28.1343C69.9999 25.9506 71.387 23.4785 72.5681 20.7042C69.9312 17.2433 66.7038 14.263 63.0368 11.9145C63.4626 15.8149 62.8857 19.7016 61.3063 23.5746" fill="#3C2B1F"/>
</g>
<defs>
<clipPath id="clip0_1_96">
<rect width="85.9743" height="116.229" fill="white" transform="translate(0.000442505 0.329926)"/>
</clipPath>
</defs>
</svg>
