<svg width="400" height="130" viewBox="0 0 400 130" fill="none" xmlns="http://www.w3.org/2000/svg">
<g clip-path="url(#clip0_133_658)">
<path d="M30.5495 3.64867C35.5925 3.64867 39.9942 4.58147 43.7546 6.41793C47.5149 8.2544 50.4008 10.8488 52.383 14.1719C54.4235 17.4367 55.4438 21.168 55.4438 25.3656C55.4438 30.0297 54.3361 33.9941 52.0915 37.2298C49.847 40.4071 46.9319 42.8558 43.2882 44.5173C39.6444 46.1206 35.7674 46.9077 31.5989 46.9077H14.9541V72.5599C14.9541 72.8806 15.2164 73.1429 15.712 73.3178C16.2367 73.5219 16.7031 73.6093 17.1404 73.6093V75.4167H0V73.6093C0.437254 73.6093 0.932809 73.5219 1.42836 73.3178C1.95307 73.1138 2.18627 72.8806 2.18627 72.5599V6.50538C2.18627 6.18473 1.92392 5.92239 1.42836 5.74749C0.991109 5.54344 0.524705 5.45599 0.0874508 5.45599V3.64867H30.5495ZM32.3568 34.752C34.6014 34.752 36.5836 34.2856 38.3035 33.3236C40.0233 32.3034 41.3351 31.0208 42.2387 29.505C43.1424 27.96 43.5797 26.3859 43.5797 24.7243C43.5797 22.2465 42.5302 20.0311 40.4314 18.1072C38.3326 16.1833 35.6799 15.2213 32.4734 15.2213H14.9541V34.752H32.3859H32.3568Z" fill="#EFECEA"/>
<path d="M126.541 72.764C126.745 73.347 127.503 73.6385 128.844 73.6385V75.4458H109.401V73.6385C110.217 73.6385 110.8 73.4344 111.121 73.0555C111.441 72.6765 111.5 72.2976 111.325 71.9186L106.049 58.422H74.8288L69.5526 71.9186L69.4651 72.2101C69.4651 72.5891 69.6109 72.9389 69.9315 73.2595C70.3105 73.5219 70.806 73.6385 71.3599 73.6385V75.4458H52.4996V73.6385C53.7823 73.6385 54.5402 73.347 54.8025 72.764L81.4167 8.05038C81.6208 7.67142 81.7082 7.32162 81.7082 7.00097C81.7082 6.41796 81.4459 6.03901 80.9503 5.86411C80.4256 5.60176 79.9009 5.48514 79.3179 5.48514V3.67784H101.618V5.48514C101.035 5.48514 100.51 5.60176 99.9854 5.86411C99.4607 6.06816 99.2275 6.44711 99.2275 7.00097C99.2275 7.32162 99.315 7.67142 99.519 8.05038L126.512 72.764H126.541ZM90.4533 18.5736L79.143 47.4032H101.734L90.4241 18.5736H90.4533Z" fill="#EFECEA"/>
<path d="M179.682 34.4605C181.781 35.1018 183.909 36.3553 186.008 38.1917C188.165 39.9699 189.972 42.2728 191.372 45.0712C192.829 47.8696 193.587 51.0179 193.587 54.4576C193.587 58.1597 192.683 61.5994 190.905 64.8059C189.127 67.9833 186.474 70.5777 182.947 72.5599C179.449 74.4838 175.251 75.4458 170.412 75.4458H140.067V73.6385C140.504 73.6385 140.971 73.551 141.408 73.347C141.933 73.1429 142.166 72.9097 142.166 72.5891V6.53455C142.166 6.2139 141.903 5.95154 141.408 5.77664C140.971 5.57259 140.504 5.48514 140.067 5.48514V3.67784H162.192C166.477 3.67784 170.238 4.49404 173.502 6.15561C176.826 7.75887 179.362 10.0034 181.169 12.9476C183.005 15.8335 183.938 19.0983 183.938 22.8004C183.938 27.5811 182.539 31.4872 179.711 34.4897L179.682 34.4605ZM154.613 31.8661H160.647C164.612 31.8661 167.323 31.1082 168.78 29.5633C170.325 27.96 171.083 25.7737 171.083 22.9462C171.083 20.7016 170.092 18.836 168.11 17.291C166.186 15.6877 163.708 14.9007 160.647 14.9007H154.613V31.8661ZM167.643 64.1355C172.482 64.1355 175.951 63.1444 177.992 61.1622C180.09 59.1799 181.14 56.8188 181.14 54.0786C181.14 51.3385 180.236 48.6859 178.458 46.5287C176.68 44.2842 173.619 43.1764 169.276 43.1764H154.642V64.1355H167.672H167.643Z" fill="#EFECEA"/>
<path d="M250.663 61.7452V77.4572H248.856C248.856 77.0782 248.768 76.641 248.564 76.1163C248.36 75.679 248.127 75.4458 247.806 75.4458H202.332V73.6385C202.769 73.6385 203.236 73.551 203.673 73.347C204.198 73.1429 204.431 72.9097 204.431 72.5891V6.53455C204.431 6.2139 204.168 5.95154 203.673 5.77664C203.148 5.57259 202.682 5.48514 202.245 5.48514V3.67784H219.472V5.48514C219.035 5.48514 218.54 5.57259 218.044 5.77664C217.519 5.98069 217.286 6.2139 217.286 6.53455V63.7857H247.836C248.156 63.7857 248.419 63.5525 248.593 63.1152C248.798 62.5905 248.885 62.1533 248.885 61.7743H250.692L250.663 61.7452Z" fill="#EFECEA"/>
<path d="M374.144 77.2531C368.663 77.2531 363.562 75.9705 358.84 73.4344C354.117 70.8109 349.541 67.2546 345.139 62.7071C345.023 62.5905 344.848 62.5031 344.673 62.5031C344.09 62.5031 343.449 62.8529 342.749 63.5525L341.495 62.2116L354.817 49.6769L356.071 51.0179C355.692 51.3385 355.342 51.7758 355.021 52.3588C354.7 52.9418 354.642 53.3499 354.817 53.6122C360.764 61.133 367.235 64.9225 374.26 64.9225C376.68 64.9225 378.866 64.4561 380.761 63.4942C382.743 62.5322 384.259 61.337 385.367 59.8504C386.445 58.3054 386.999 56.7605 386.999 55.1572C386.999 51.3968 383.705 48.3069 377.146 45.8582L365.369 41.4566C360.647 39.7367 356.945 37.3755 354.263 34.3731C351.64 31.3706 350.328 27.7559 350.328 23.5583C350.328 19.3607 351.29 15.8043 353.214 12.7436C355.196 9.62448 357.965 7.23413 361.551 5.57257C365.136 3.911 369.276 3.0948 373.998 3.0948C378.458 3.0948 382.189 3.79441 385.192 5.19362C388.252 6.53454 391.517 8.6042 394.957 11.4026C395.015 11.4609 395.161 11.4901 395.336 11.4901C395.657 11.4901 396.006 11.4026 396.385 11.1986C396.823 10.9362 397.172 10.6739 397.435 10.4407L398.688 11.6941L386.824 23.3834L385.571 22.0425C385.891 21.7218 386.124 21.372 386.241 20.9931C386.445 20.5558 386.387 20.2352 386.154 20.0311C382.014 16.708 377.875 15.0464 373.794 15.0464C370.529 15.0464 367.964 15.8043 366.04 17.3493C364.116 18.8068 363.154 20.7016 363.154 23.0044C363.154 25.045 363.679 26.6191 364.699 27.6976C365.778 28.7762 367.41 29.709 369.567 30.4669L381.14 34.6937C385.163 36.1512 388.515 37.7253 391.197 39.3869C393.878 40.9902 396.006 43.1181 397.61 45.8C399.213 48.4235 400 51.7175 400 55.6527C400 59.588 398.98 63.0569 396.939 66.38C394.957 69.6449 391.984 72.2976 388.048 74.3381C384.142 76.3203 379.536 77.3114 374.173 77.3114L374.144 77.2531Z" fill="#EFECEA"/>
<path d="M343.099 17.5242C339.805 20.8182 334.441 20.8182 331.118 17.5242C327.824 14.2302 327.824 8.86657 331.118 5.54344L337.094 -0.432373L343.07 5.54344C346.364 8.83742 346.364 14.2011 343.07 17.5242H343.099Z" fill="#EFECEA"/>
<path d="M328.174 38.7164C328.174 59.4423 311.383 76.2329 290.657 76.2329C269.932 76.2329 253.141 59.4423 253.141 38.7164C253.141 17.9906 269.932 1.20003 290.657 1.20003C311.383 1.20003 328.174 17.9906 328.174 38.7164ZM290.657 12.8893C276.403 12.8893 264.83 24.462 264.83 38.7164C264.83 52.9709 276.403 64.5436 290.657 64.5436C304.912 64.5436 316.484 52.9709 316.484 38.7164C316.484 24.462 304.912 12.8893 290.657 12.8893Z" fill="#EFECEA"/>
<path d="M58.205 116.221C57.8261 115.784 57.3888 115.434 56.8349 115.201C56.3102 114.967 55.6981 114.851 54.9985 114.851C54.2989 114.851 53.6284 114.997 53.0454 115.259C52.4624 115.521 51.9377 115.9 51.5004 116.396C51.0632 116.862 50.7134 117.445 50.4802 118.116C50.247 118.786 50.1304 119.515 50.1304 120.302C50.1304 121.089 50.247 121.847 50.4802 122.517C50.7425 123.159 51.0923 123.742 51.5004 124.237C51.9377 124.704 52.4332 125.083 53.0163 125.374C53.5993 125.636 54.2406 125.782 54.911 125.782C55.6689 125.782 56.3685 125.636 56.9515 125.316C57.5345 124.995 58.0301 124.558 58.4091 123.975L61.5281 126.307C60.7994 127.298 59.8957 128.056 58.788 128.522C57.6803 128.989 56.5434 129.251 55.3774 129.251C54.0657 129.251 52.8414 129.047 51.7045 128.639C50.5968 128.231 49.6348 127.648 48.8186 126.861C48.0024 126.074 47.3611 125.141 46.8947 124.033C46.4574 122.925 46.2242 121.701 46.2242 120.36C46.2242 119.019 46.4574 117.766 46.8947 116.687C47.3611 115.58 48.0024 114.647 48.8186 113.889C49.6348 113.102 50.5968 112.519 51.7045 112.082C52.8122 111.673 54.0365 111.469 55.3774 111.469C55.8438 111.469 56.3394 111.528 56.8641 111.615C57.3888 111.703 57.9135 111.819 58.4091 112.023C58.9338 112.227 59.4002 112.461 59.8666 112.781C60.333 113.102 60.7411 113.481 61.12 113.947L58.2342 116.279L58.205 116.221Z" fill="#EFECEA"/>
<path d="M74.5583 120.302C74.5583 118.932 74.7915 117.708 75.2288 116.629C75.6952 115.521 76.3365 114.588 77.1527 113.831C77.9689 113.044 78.9308 112.461 80.0386 112.023C81.1463 111.615 82.3706 111.411 83.7115 111.411C85.0524 111.411 86.2476 111.615 87.3844 112.023C88.4921 112.431 89.4541 113.044 90.2703 113.831C91.0865 114.588 91.7278 115.521 92.1651 116.629C92.6315 117.737 92.8647 118.961 92.8647 120.302C92.8647 121.643 92.6315 122.896 92.1651 123.975C91.7278 125.083 91.0865 126.015 90.2703 126.802C89.4541 127.56 88.4921 128.173 87.3844 128.581C86.2767 128.989 85.0524 129.193 83.7115 129.193C82.3706 129.193 81.1754 128.989 80.0386 128.581C78.9308 128.173 77.9689 127.589 77.1527 126.802C76.3365 126.015 75.6952 125.083 75.2288 123.975C74.7915 122.867 74.5583 121.643 74.5583 120.302ZM78.4353 120.302C78.4353 121.089 78.5519 121.847 78.7851 122.517C79.0475 123.159 79.3972 123.742 79.8637 124.237C80.3301 124.704 80.8839 125.083 81.5252 125.374C82.1665 125.636 82.8953 125.782 83.7115 125.782C84.5277 125.782 85.2273 125.636 85.8686 125.374C86.5099 125.112 87.0929 124.733 87.5302 124.237C87.9966 123.742 88.3464 123.159 88.5796 122.517C88.8419 121.847 88.9585 121.118 88.9585 120.302C88.9585 119.486 88.8419 118.786 88.5796 118.116C88.3464 117.445 87.9966 116.862 87.5302 116.396C87.0638 115.9 86.5099 115.521 85.8686 115.259C85.2273 114.997 84.4986 114.851 83.7115 114.851C82.9244 114.851 82.1957 114.997 81.5252 115.259C80.8839 115.521 80.3301 115.9 79.8637 116.396C79.3972 116.862 79.0475 117.445 78.7851 118.116C78.5519 118.786 78.4353 119.515 78.4353 120.302Z" fill="#EFECEA"/>
<path d="M107.498 111.819H118.867V115.259H111.229V118.699H118.284V122.138H111.229V128.756H107.498V111.819Z" fill="#EFECEA"/>
<path d="M133.675 111.819H145.044V115.259H137.406V118.699H144.461V122.138H137.406V128.756H133.675V111.819Z" fill="#EFECEA"/>
<path d="M159.823 111.819H171.337V115.259H163.554V118.407H170.9V121.847H163.554V125.287H171.774V128.726H159.823V111.79V111.819Z" fill="#EFECEA"/>
<path d="M186.874 111.819H198.389V115.259H190.606V118.407H197.951V121.847H190.606V125.287H198.826V128.726H186.874V111.79V111.819Z" fill="#EFECEA"/>
<path d="M224.232 111.819H227.963V118.145H235.222V111.819H238.953V128.756H235.222V121.439H227.963V128.756H224.232V111.819Z" fill="#EFECEA"/>
<path d="M253.47 120.302C253.47 118.932 253.703 117.708 254.14 116.629C254.607 115.521 255.248 114.588 256.064 113.831C256.88 113.044 257.842 112.461 258.95 112.023C260.058 111.615 261.282 111.411 262.623 111.411C263.964 111.411 265.159 111.615 266.296 112.023C267.403 112.431 268.365 113.044 269.182 113.831C269.998 114.588 270.639 115.521 271.076 116.629C271.543 117.737 271.776 118.961 271.776 120.302C271.776 121.643 271.543 122.896 271.076 123.975C270.639 125.083 269.998 126.015 269.182 126.802C268.365 127.56 267.403 128.173 266.296 128.581C265.188 128.989 263.964 129.193 262.623 129.193C261.282 129.193 260.087 128.989 258.95 128.581C257.842 128.173 256.88 127.589 256.064 126.802C255.248 126.015 254.607 125.083 254.14 123.975C253.703 122.867 253.47 121.643 253.47 120.302ZM257.347 120.302C257.347 121.089 257.463 121.847 257.696 122.517C257.959 123.159 258.309 123.742 258.775 124.237C259.241 124.704 259.795 125.083 260.437 125.374C261.078 125.636 261.807 125.782 262.623 125.782C263.439 125.782 264.139 125.636 264.78 125.374C265.421 125.112 266.004 124.733 266.442 124.237C266.908 123.742 267.258 123.159 267.491 122.517C267.753 121.847 267.87 121.118 267.87 120.302C267.87 119.486 267.753 118.786 267.491 118.116C267.258 117.445 266.908 116.862 266.442 116.396C265.975 115.9 265.421 115.521 264.78 115.259C264.139 114.997 263.41 114.851 262.623 114.851C261.836 114.851 261.107 114.997 260.437 115.259C259.795 115.521 259.241 115.9 258.775 116.396C258.309 116.862 257.959 117.445 257.696 118.116C257.463 118.786 257.347 119.515 257.347 120.302Z" fill="#EFECEA"/>
<path d="M300.547 122.022C300.547 123.013 300.402 123.946 300.081 124.791C299.789 125.636 299.323 126.365 298.711 127.007C298.128 127.619 297.37 128.114 296.495 128.464C295.592 128.814 294.572 128.989 293.406 128.989C292.24 128.989 291.19 128.814 290.286 128.464C289.383 128.114 288.654 127.619 288.042 127.007C287.459 126.394 286.992 125.636 286.701 124.791C286.409 123.946 286.235 123.013 286.235 122.022V111.615H289.966V121.876C289.966 122.401 290.053 122.896 290.199 123.334C290.374 123.771 290.607 124.179 290.928 124.5C291.219 124.82 291.598 125.083 292.006 125.258C292.444 125.432 292.91 125.52 293.406 125.52C293.901 125.52 294.368 125.432 294.776 125.258C295.184 125.053 295.563 124.82 295.854 124.5C296.146 124.179 296.379 123.771 296.554 123.334C296.729 122.896 296.816 122.401 296.816 121.876V111.615H300.547V122.022Z" fill="#EFECEA"/>
<path d="M324.334 115.959C324.043 115.58 323.605 115.288 323.081 115.113C322.556 114.909 322.089 114.822 321.623 114.822C321.361 114.822 321.069 114.851 320.778 114.909C320.486 114.967 320.224 115.084 319.961 115.23C319.699 115.346 319.495 115.521 319.349 115.755C319.174 115.988 319.116 116.25 319.116 116.571C319.116 117.095 319.32 117.474 319.699 117.737C320.078 117.999 320.574 118.232 321.128 118.436C321.711 118.64 322.352 118.815 323.022 119.019C323.693 119.223 324.305 119.486 324.888 119.836C325.471 120.185 325.966 120.652 326.345 121.235C326.724 121.818 326.928 122.605 326.928 123.596C326.928 124.587 326.753 125.345 326.404 126.074C326.054 126.773 325.587 127.356 324.975 127.823C324.392 128.289 323.693 128.639 322.906 128.843C322.119 129.076 321.302 129.164 320.428 129.164C319.32 129.164 318.3 128.989 317.367 128.668C316.434 128.347 315.56 127.794 314.744 127.036L317.396 124.121C317.775 124.645 318.271 125.024 318.825 125.316C319.408 125.578 320.02 125.724 320.632 125.724C320.923 125.724 321.244 125.695 321.536 125.636C321.856 125.549 322.119 125.432 322.381 125.316C322.643 125.17 322.847 124.995 322.993 124.762C323.139 124.529 323.226 124.266 323.226 123.975C323.226 123.45 323.022 123.071 322.643 122.78C322.264 122.488 321.769 122.226 321.186 122.022C320.603 121.818 319.961 121.614 319.262 121.41C318.562 121.206 317.95 120.914 317.338 120.564C316.755 120.214 316.259 119.748 315.851 119.165C315.472 118.582 315.268 117.824 315.268 116.891C315.268 115.959 315.443 115.171 315.793 114.501C316.172 113.801 316.638 113.248 317.221 112.781C317.834 112.315 318.533 111.965 319.291 111.761C320.078 111.528 320.865 111.411 321.71 111.411C322.672 111.411 323.605 111.557 324.48 111.819C325.383 112.082 326.17 112.548 326.899 113.189L324.334 115.988V115.959Z" fill="#EFECEA"/>
<path d="M341.824 111.819H353.338V115.259H345.555V118.407H352.901V121.847H345.555V125.287H353.776V128.726H341.824V111.79V111.819Z" fill="#EFECEA"/>
</g>
<defs>
<clipPath id="clip0_133_658">
<rect width="400" height="129.251" fill="white"/>
</clipPath>
</defs>
</svg>
