<svg width="75" height="101" viewBox="0 0 75 101" fill="none" xmlns="http://www.w3.org/2000/svg">
<g clip-path="url(#clip0_1_1279)">
<path d="M37.6549 82.5798C55.273 82.5798 69.6179 68.2467 69.6179 50.6168C69.6179 32.9869 55.2848 18.6538 37.6549 18.6538C20.0251 18.6538 5.69195 32.9869 5.69195 50.6168C5.69195 68.2467 20.0251 82.5798 37.6549 82.5798ZM38.3048 31.758C38.6948 31.179 39.4156 30.9191 40.1009 31.0963C46.5289 32.7624 51.4091 40.8684 51.4091 50.6286C51.4091 58.2501 48.4314 64.8672 44.0593 68.1994C42.6887 69.2392 40.8571 67.7976 41.5425 66.2261C43.3031 62.244 44.4729 56.0877 39.0138 50.6286C31.6523 43.2671 36.367 34.6294 38.293 31.7698M31.2387 33.0696C32.6094 32.0298 34.4409 33.4714 33.7438 35.0429C31.9831 39.025 30.8133 45.1813 36.2606 50.6404C43.6221 58.0019 38.9193 66.6396 36.9814 69.4992C36.5915 70.09 35.8707 70.3381 35.1853 70.1609C28.7573 68.4948 23.889 60.3888 23.889 50.6286C23.889 43.0071 26.8667 36.39 31.2387 33.0696Z" fill="#3C2B1F"/>
<path d="M37.6549 0.622192C17.2601 0.622192 0.670044 17.2122 0.670044 37.6071V63.6383C0.670044 84.0332 17.2601 100.623 37.6549 100.623C58.0498 100.623 74.6398 84.0332 74.6398 63.6383V37.6071C74.6398 17.2122 58.0498 0.622192 37.6549 0.622192ZM71.4376 63.6383C71.4376 82.2607 56.2774 97.421 37.6549 97.421C19.0325 97.421 3.87225 82.2607 3.87225 63.6383V37.6071C3.87225 18.9728 19.0325 3.8244 37.6549 3.8244C56.2774 3.8244 71.4376 18.9847 71.4376 37.6071V63.6383Z" fill="#3C2B1F"/>
<path d="M63.2017 82.8043C64.3597 81.2682 65.3759 79.6257 66.2385 77.8887H57.5535C54.6467 80.0156 51.3972 81.6817 47.8996 82.8043H63.2017Z" fill="#3C2B1F"/>
<path d="M8.22063 76.069H15.4758C13.9279 74.7219 12.4981 73.2331 11.222 71.6143H6.70815C7.09809 73.1504 7.60619 74.6274 8.22063 76.069Z" fill="#3C2B1F"/>
<path d="M64.0879 71.6143C62.8118 73.2213 61.382 74.7101 59.834 76.069H67.0892C67.6919 74.6392 68.2 73.1504 68.6017 71.6143H64.0879Z" fill="#3C2B1F"/>
<path d="M27.4102 82.8043C23.9126 81.6817 20.6632 80.0156 17.7564 77.8887H9.0714C9.93399 79.6257 10.9502 81.2682 12.1082 82.8043H27.4102Z" fill="#3C2B1F"/>
<path d="M65.754 69.3337H69.098C69.4288 67.4786 69.6179 65.5762 69.6179 63.6383V61.5586C68.6608 64.3355 67.361 66.9468 65.754 69.3456" fill="#3C2B1F"/>
<path d="M9.55587 69.3337C7.96068 66.935 6.64907 64.3236 5.69195 61.5468V63.6265C5.69195 65.5762 5.88101 67.4786 6.21187 69.3219H9.55587V69.3337Z" fill="#3C2B1F"/>
<path d="M33.7674 84.175H13.2071C14.9086 86.1955 16.8465 87.9916 18.9852 89.5395H56.3364C58.4752 87.9916 60.413 86.1955 62.1146 84.175C62.1146 84.175 35.0435 84.3168 33.7674 84.175Z" fill="#3C2B1F"/>
<path d="M20.3087 90.4494C25.3069 93.6989 31.2623 95.5895 37.6549 95.5895C44.0475 95.5895 50.0029 93.6989 55.0012 90.4494H20.3087Z" fill="#3C2B1F"/>
<path d="M13.0889 27.4569C14.8496 25.5899 16.8229 23.9238 18.9616 22.4941C15.594 22.2341 12.2027 22.5295 9.0714 23.333C7.91341 25.649 7.02719 28.1304 6.44819 30.73C8.42151 29.3593 10.6666 28.2604 13.0889 27.4687" fill="#3C2B1F"/>
<path d="M44.9337 17.6258C47.6042 18.2166 50.1684 19.1264 52.5671 20.3081C53.9377 16.9168 54.3749 13.4901 53.8668 10.0752C49.5539 7.5347 44.6029 5.96314 39.321 5.69136C42.5823 9.07081 44.5556 13.301 44.9337 17.6376" fill="#3C2B1F"/>
<path d="M24.5153 8.48C21.2067 9.98067 18.1936 12.0249 15.594 14.5181C20.2732 14.8017 24.6807 16.0897 28.3437 18.1457C30.707 17.4722 33.1647 17.0468 35.7052 16.905C33.1293 13.1829 29.2181 10.217 24.5034 8.49182" fill="#3C2B1F"/>
<path d="M20.285 21.6551C22.4238 20.3672 24.7161 19.3037 27.1266 18.512C23.5227 16.6569 19.2334 15.5461 14.7078 15.3925C12.7344 17.4367 11.0211 19.7291 9.63858 22.2341C13.0535 21.4424 16.7047 21.2416 20.2732 21.6551" fill="#3C2B1F"/>
<path d="M63.698 19.1146C62.7527 21.2534 61.5592 23.3449 59.9168 25.2473C61.4411 26.5943 62.8472 28.0595 64.1115 29.6547C65.3759 28.7803 66.5693 27.7996 67.7037 26.7243C66.7111 23.9947 65.3522 21.4424 63.698 19.1146Z" fill="#3C2B1F"/>
<path d="M36.7805 16.8459C37.0759 16.8459 37.3595 16.8223 37.6549 16.8223C39.8173 16.8223 41.9324 17.035 43.9884 17.4249C43.5394 13.1002 41.4125 8.89357 37.974 5.6441C37.8676 5.6441 37.7613 5.6441 37.6431 5.6441C33.4247 5.6441 29.3954 6.47123 25.6969 7.9719C30.3879 9.88613 34.24 12.9938 36.7687 16.8577" fill="#3C2B1F"/>
<path d="M6.18824 32.0416C5.8692 33.8495 5.69195 35.7047 5.69195 37.6071V39.6867C7.06264 35.6928 9.16593 32.0416 11.8246 28.8867C9.75675 29.7138 7.85433 30.7773 6.18824 32.0416Z" fill="#3C2B1F"/>
<path d="M69.3225 33.3414C68.7317 33.7313 68.07 34.1567 67.361 34.5703C68.2472 36.2009 69.0035 37.9143 69.6179 39.6867V37.6071C69.6179 36.1655 69.5116 34.7357 69.3225 33.3414Z" fill="#3C2B1F"/>
<path d="M68.0227 27.6696C66.9593 28.6504 65.8367 29.5602 64.6669 30.3755C65.4822 31.4626 66.2385 32.597 66.912 33.7668C67.7391 33.2823 68.5072 32.786 69.1689 32.337C68.8971 30.73 68.519 29.1703 68.0227 27.6578" fill="#3C2B1F"/>
<path d="M53.3824 20.7216C55.4738 21.8324 57.4353 23.144 59.2432 24.6446C60.8739 22.7659 62.0673 20.6389 63.0835 18.252C60.8148 15.2743 58.038 12.7102 54.883 10.6896C55.2493 14.0455 54.7531 17.3895 53.3942 20.7216" fill="#3C2B1F"/>
<g style="mix-blend-mode:multiply" opacity="0.25">
<mask id="mask0_1_1279" style="mask-type:luminance" maskUnits="userSpaceOnUse" x="23" y="32" width="14" height="39">
<path d="M32.5976 57.8129L32.9403 58.7464C32.8812 58.77 32.8103 58.7345 32.7748 58.6755C32.6685 58.4391 32.5503 58.191 32.4558 57.9428C32.3495 57.6829 32.2549 57.4229 32.1604 57.163C32.1368 57.1039 32.1604 57.033 32.2195 56.9975L32.5858 57.8247L32.5976 57.8129ZM32.3258 58.0492C32.0304 57.3048 31.7705 56.5249 31.5578 55.6978L31.2505 55.1306C31.2505 55.1306 31.1678 55.2251 31.1796 55.2842C31.4042 56.2886 31.6996 57.2575 32.0777 58.1555C32.4322 59.0181 32.8457 59.798 33.2948 60.507C33.3302 60.5542 33.3893 60.5897 33.4366 60.5661L33.3066 60.0107C32.9403 59.4081 32.6212 58.7582 32.3258 58.0492ZM31.605 58.2737C32.1486 59.5971 32.8103 60.7433 33.5783 61.7004C33.6138 61.7359 33.6611 61.7595 33.7201 61.7477L33.6256 61.3105C32.9403 60.4243 32.3613 59.3726 31.865 58.1792C31.3569 56.9266 30.9788 55.5678 30.7424 54.138L30.4825 53.559C30.4234 53.5826 30.388 53.6417 30.3998 53.7008C30.6243 55.3315 31.0379 56.8676 31.605 58.2737ZM32.5385 63.461C33.1293 64.1228 33.7674 64.6663 34.4291 65.0799C34.4646 65.1035 34.5 65.1035 34.5355 65.1035L34.4409 64.7726C33.8501 64.3827 33.2711 63.8864 32.7276 63.2838C32.1486 62.6457 31.5932 61.8895 31.0969 61.0505C30.258 59.6208 29.6081 58.0019 29.1709 56.2059C28.7219 54.4216 28.4974 52.5428 28.4974 50.6168C28.4974 49.9432 28.5328 49.2579 28.5919 48.5844C28.6273 48.0999 28.6864 47.6273 28.7573 47.1546L28.71 46.4574C28.651 46.4574 28.5919 46.5047 28.5801 46.5756C28.4619 47.2255 28.3792 47.899 28.3201 48.5726C28.261 49.2579 28.2374 49.9432 28.2374 50.6286C28.2374 52.5783 28.4619 54.4807 28.9227 56.2886C29.3718 58.0965 30.0335 59.7507 30.8724 61.1923C31.3687 62.0549 31.9359 62.823 32.5385 63.4729V63.461ZM28.0247 50.6168C28.0247 49.5651 28.0956 48.5135 28.2256 47.4855C28.3319 46.6701 28.4855 45.8666 28.6628 45.0868L28.6864 44.3423C28.6273 44.3423 28.5683 44.3778 28.5564 44.4369C28.2965 45.4058 28.0956 46.422 27.9538 47.45C27.812 48.4898 27.7529 49.5533 27.7529 50.6168C27.7529 53.9726 28.4146 57.2102 29.679 59.9752C30.9197 62.6812 32.6803 64.7372 34.6418 65.777C34.6773 65.8007 34.7245 65.8007 34.7482 65.777L34.6536 65.458C32.7985 64.43 31.1206 62.4448 29.9389 59.8453C28.6982 57.1157 28.0365 53.9253 28.0365 50.605L28.0247 50.6168ZM29.3127 50.1796C29.2536 50.1914 29.2063 50.2505 29.2063 50.3095V50.6168C29.2063 53.4054 29.6908 56.1231 30.6125 58.4509C31.4514 60.6015 32.633 62.3621 34.0037 63.5556C34.0392 63.5792 34.0864 63.591 34.1219 63.591L34.0392 63.2247C32.763 62.0667 31.6641 60.3888 30.8606 58.3564C29.9626 56.0995 29.4899 53.4999 29.4663 50.8058L29.289 50.1796H29.3127ZM29.8326 51.9047C29.7735 51.9284 29.7381 51.9875 29.7381 52.0465C29.8326 53.6063 30.0925 55.1188 30.4943 56.5485C30.9079 57.9783 31.4514 59.3017 32.1368 60.4597C32.3849 60.8851 32.6567 61.2987 32.9403 61.665C33.2239 62.0431 33.5193 62.3858 33.8147 62.693C33.8501 62.7284 33.8974 62.7403 33.9446 62.7284V62.7048L33.8501 62.3385C33.6138 62.0785 33.3775 61.795 33.153 61.4995C32.8812 61.1332 32.6094 60.7315 32.3731 60.3179C31.7114 59.1717 31.1678 57.8838 30.7661 56.4776C30.4116 55.2133 30.1634 53.8899 30.0571 52.5192L29.8444 51.9166L29.8326 51.9047ZM34.2164 64.3354C34.2164 64.3354 34.2991 64.3709 34.3346 64.3591L34.2401 64.0164C32.8103 62.8939 31.5223 61.0978 30.6006 58.959C29.549 56.4894 28.9936 53.6063 28.9936 50.6168C28.9936 50.2505 28.9936 49.896 29.0173 49.5415C29.0173 49.3642 29.0409 49.1752 29.0527 48.9979L28.9346 48.3362C28.8755 48.348 28.8282 48.3953 28.8164 48.4544C28.7809 48.8207 28.7573 49.1752 28.7337 49.5297C28.7219 49.8842 28.71 50.2505 28.71 50.6168C28.71 53.6417 29.2772 56.5603 30.3407 59.0654C31.3096 61.3223 32.6803 63.2011 34.2046 64.3354H34.2164ZM31.605 35.3974C31.605 35.3974 31.5578 35.3738 31.5223 35.3738C31.4869 35.3738 31.4514 35.3856 31.4278 35.4092C29.7026 37.0281 28.2728 39.2732 27.3039 41.9082C26.3232 44.555 25.8032 47.5564 25.8032 50.605C25.8032 54.7052 26.784 58.7464 28.5564 61.9722C30.3289 65.2098 32.7985 67.4195 35.4808 68.1875C35.5044 68.1875 35.5398 68.1875 35.5635 68.1875L35.4571 67.904C32.8812 67.1241 30.5179 64.9853 28.7928 61.8422C27.044 58.6518 26.075 54.6579 26.075 50.605C26.075 47.5918 26.5831 44.6141 27.5639 41.9909C28.4501 39.6158 29.6908 37.5598 31.2033 36.0119L31.605 35.3856V35.3974ZM34.9372 66.4269L34.8427 66.1197C32.7985 65.139 30.9551 63.1066 29.6435 60.377C28.2847 57.5529 27.5402 54.0907 27.5402 50.6168C27.5402 49.1516 27.682 47.6745 27.942 46.2448C28.1547 45.0631 28.4619 43.9288 28.84 42.8535L28.9582 42.0618H28.9346C28.8755 42.0618 28.8282 42.0972 28.8046 42.1445C28.3083 43.4207 27.9302 44.7795 27.6702 46.1975C27.4103 47.6391 27.2685 49.1279 27.2685 50.6168C27.2685 54.1262 28.0247 57.6356 29.3954 60.4952C30.7661 63.3311 32.7039 65.4462 34.8427 66.4269C34.8781 66.4387 34.9018 66.4506 34.9372 66.4269ZM35.1381 67.0296L35.0436 66.7341C32.8221 65.8125 30.8133 63.7446 29.3599 60.8733C27.8711 57.931 27.0558 54.2798 27.0558 50.6168C27.0558 48.6671 27.2803 46.7292 27.7293 44.8741C28.1074 43.2907 28.6391 41.8255 29.3009 40.4784L29.5372 39.6749C29.5372 39.6749 29.5136 39.6749 29.5017 39.6749C29.4545 39.6749 29.4072 39.6985 29.3836 39.7458C28.5564 41.2701 27.9184 42.9717 27.4693 44.815C27.0085 46.6938 26.784 48.6435 26.784 50.6168C26.784 54.3271 27.6111 58.0137 29.1236 60.9914C30.6243 63.9691 32.7394 66.1197 35.0554 67.0296C35.079 67.0296 35.1145 67.0296 35.1499 67.0296H35.1381ZM26.5595 50.6168C26.5595 48.1708 26.9258 45.6894 27.6111 43.4443C28.2138 41.471 29.0764 39.6513 30.1044 38.1388L30.447 37.3944C30.447 37.3944 30.4116 37.3826 30.388 37.3826C30.3407 37.3826 30.3052 37.4062 30.2816 37.4416C29.0527 39.0723 28.0365 41.1165 27.3512 43.3616C26.654 45.6421 26.2877 48.1472 26.2877 50.6168C26.2877 54.528 27.1857 58.3919 28.8282 61.4995C30.4707 64.619 32.7512 66.7932 35.2563 67.6322C35.2799 67.6322 35.3153 67.6322 35.339 67.6322L35.2917 67.514L35.2326 67.3486C32.8339 66.5096 30.6479 64.3945 29.0645 61.3814C27.4457 58.3092 26.5477 54.4925 26.5477 50.6286L26.5595 50.6168ZM35.5517 68.7311C35.5517 68.7311 35.5871 68.7311 35.5989 68.7311C35.5989 68.7311 35.6344 68.7311 35.6462 68.7311C35.6816 68.7311 35.7171 68.7311 35.7525 68.7075L35.658 68.4475H35.6226C34.2873 68.1048 32.9875 67.4077 31.7941 66.3915C30.5888 65.3753 29.5135 64.0637 28.5919 62.5039C27.6348 60.8615 26.8903 58.9945 26.3704 56.9621C25.8623 54.9179 25.5906 52.7791 25.5906 50.605C25.5906 47.2373 26.2168 43.9524 27.3866 41.1165C28.5564 38.2806 30.2343 35.9646 32.2549 34.4285C32.2667 34.4167 32.2786 34.4049 32.2904 34.4049L32.4676 34.1922C32.4676 34.1922 32.4558 34.1922 32.444 34.1804C32.4085 34.1567 32.3495 34.1331 32.2786 34.1331C32.2431 34.1331 32.2077 34.1331 32.1722 34.1567C32.1486 34.1685 32.1131 34.1922 32.0777 34.2158C30.0335 35.7755 28.3083 38.127 27.1148 41.0102C25.9332 43.8933 25.2951 47.2137 25.2951 50.605C25.2951 52.8028 25.5551 54.9652 26.075 57.0212C26.5949 59.089 27.3512 60.9796 28.3319 62.6457C29.2536 64.2291 30.3525 65.5643 31.5814 66.6042C32.8221 67.644 34.1455 68.353 35.5162 68.7193L35.5517 68.7311ZM35.4808 69.7C35.6816 69.7237 35.9061 69.7 36.0952 69.6291L36.0007 69.3692C35.8943 69.4046 35.7644 69.4283 35.6462 69.4283C35.5989 69.4283 35.5517 69.4283 35.5044 69.4283C35.4689 69.4283 35.4217 69.4164 35.3744 69.4046C32.3613 68.6247 29.6317 66.3088 27.6702 62.8939C25.6969 59.4671 24.6216 55.1069 24.6216 50.6168C24.6216 47.1073 25.2833 43.6806 26.524 40.6911C27.7647 37.7134 29.549 35.2911 31.6759 33.6604C31.7705 33.5895 31.8768 33.5305 31.9832 33.495C32.2431 33.4005 32.5385 33.4241 32.7867 33.5659C32.8339 33.5895 32.8812 33.625 32.9166 33.6486L33.0821 33.4359C33.0821 33.4359 32.9757 33.3532 32.9166 33.3178C32.7276 33.2114 32.5149 33.1523 32.2904 33.1523C32.1486 33.1523 32.0068 33.176 31.8768 33.2232C31.7468 33.2705 31.6168 33.3414 31.4987 33.4359C29.3245 35.0784 27.5166 37.548 26.2641 40.573C25.0116 43.5861 24.338 47.0601 24.338 50.5931C24.338 55.1306 25.4369 59.538 27.4339 63.012C29.4308 66.486 32.2313 68.8493 35.3035 69.6528C35.3626 69.6646 35.4099 69.6764 35.4689 69.6882L35.4808 69.7ZM24.1372 50.6168C24.1372 46.9774 24.8343 43.4207 26.1459 40.3484C27.4221 37.3589 29.23 34.913 31.3805 33.2823C32.0659 32.7624 32.7985 32.9515 33.2239 33.2823L33.4011 33.0696C33.0702 32.8097 32.6921 32.6797 32.314 32.6797C31.9359 32.6797 31.5578 32.7979 31.2269 33.0578C29.0409 34.7239 27.2094 37.2053 25.9096 40.2303C24.5862 43.3498 23.8772 46.9301 23.8772 50.605C23.8772 55.2842 25.0234 59.8216 27.1148 63.3783C29.1827 66.9114 32.054 69.3101 35.209 70.1254C35.5753 70.2199 35.9416 70.1963 36.2843 70.0781L36.1897 69.8182C35.8943 69.9245 35.5871 69.9363 35.2799 69.8655C32.2077 69.0619 29.3954 66.7105 27.363 63.2365C25.2951 59.7153 24.1608 55.2251 24.1608 50.605L24.1372 50.6168ZM32.1368 33.9677C32.2786 33.9086 32.4204 33.9322 32.5503 34.0031C32.574 34.0149 32.5858 34.0267 32.6094 34.0386L32.7867 33.8259C32.7867 33.8259 32.7276 33.7786 32.6921 33.7668C32.574 33.6959 32.4322 33.6604 32.3022 33.6604C32.2195 33.6604 32.1249 33.6723 32.0422 33.7077C31.9595 33.7432 31.8768 33.7904 31.8059 33.8377C29.6908 35.4447 27.9302 37.8552 26.7013 40.8093C25.4724 43.7633 24.8343 47.1546 24.8343 50.6168C24.8343 55.0479 25.8978 59.349 27.8238 62.7402C29.7499 66.1315 32.4558 68.4357 35.4335 69.2037C35.469 69.2037 35.5044 69.2156 35.5398 69.2274C35.6698 69.2392 35.7998 69.2274 35.918 69.1801L35.8234 68.932C35.7643 68.9556 35.7053 68.9674 35.6462 68.9674C35.6226 68.9674 35.5989 68.9674 35.5753 68.9674C35.5517 68.9674 35.528 68.9674 35.5044 68.9556C32.5976 68.1994 29.9508 65.9543 28.0602 62.6221C26.1577 59.2781 25.1061 55.0242 25.1061 50.6404C25.1061 47.2019 25.7442 43.8461 26.9494 40.9393C28.1547 38.0325 29.8799 35.6574 31.9595 34.0858C32.0186 34.0504 32.0777 34.0149 32.1249 33.9913L32.1368 33.9677Z" fill="white"/>
</mask>
<g mask="url(#mask0_1_1279)">
<path d="M33.6492 33.5659C32.0303 31.6753 30.1752 34.3458 29.0881 35.5392C22.1047 44.7677 22.152 60.0579 31.3096 67.8449C32.0776 68.4593 32.9047 68.991 33.8028 69.3928C34.6772 69.7237 35.6816 70.3499 36.5678 69.7709C36.5914 69.7591 36.6151 69.7945 36.5914 69.8064C36.1779 70.1018 35.6343 70.2081 35.138 70.0663C33.6728 69.7236 32.2903 69.0383 31.0969 68.1285C22.2465 60.9324 21.4784 43.846 28.8281 35.3383C29.8443 34.3694 30.896 32.7624 32.4203 32.7624C32.952 32.8097 33.3774 33.1405 33.6846 33.5423C33.7083 33.5659 33.661 33.5895 33.6492 33.5659Z" fill="#3C2B1F"/>
<path d="M36.2015 69.4637C35.788 69.7355 35.268 69.5819 34.8427 69.4637C31.6877 68.5893 29.1827 66.1079 27.5638 63.3311C22.9201 54.5634 22.8255 42.2272 30.0098 34.783C30.8251 34.0031 32.4085 32.337 33.2947 33.8613C33.0466 33.6014 32.7039 33.3296 32.3022 33.365C31.8531 33.365 31.5341 33.7314 31.1796 34.0268C30.1516 34.9248 29.2654 35.9764 28.5091 37.1108C23.7354 44.7441 23.1209 55.3669 27.8829 63.142C29.5253 65.8361 31.8531 68.2466 34.8781 69.3219C35.3035 69.4755 35.7525 69.641 36.1779 69.4165C36.2015 69.4046 36.2252 69.4401 36.2015 69.4519V69.4637Z" fill="#3C2B1F"/>
<path d="M35.977 69.0383C35.7762 69.1565 35.5162 69.1447 35.3035 69.0738C31.9595 68.2939 29.3599 65.6471 27.7529 62.7285C23.8181 54.8234 23.4636 44.4369 28.7337 37.0399C29.6908 35.7992 30.7424 34.5467 32.1249 33.7786C32.3495 33.7077 32.6803 33.8141 32.7748 33.9913C32.5976 33.9086 32.3613 33.7668 32.1486 33.8613C30.8961 34.7239 29.8799 35.9764 29.0055 37.2171C24.338 44.6023 23.6291 54.8825 28.0838 62.5276C29.7971 65.4226 32.5976 68.5775 35.977 69.0265V69.0383Z" fill="#3C2B1F"/>
<path d="M35.7288 68.6129C28.6154 67.065 26.0158 58.8409 25.3896 52.4365C24.8815 46.552 26.264 40.1121 30.4588 35.7401C30.9787 35.1966 31.5577 34.7239 32.1603 34.2867C32.2548 34.1922 32.4203 34.2631 32.4793 34.3576C32.4912 34.3812 32.4557 34.4049 32.4439 34.3812C32.2903 34.1804 32.1249 34.4285 31.9712 34.5467C31.4868 34.9602 31.0496 35.4211 30.6242 35.8819C22.9673 44.8741 23.6172 63.9219 35.7288 68.5893V68.6129Z" fill="#3C2B1F"/>
<path d="M35.6698 67.8921L35.5517 68.093C35.5517 68.093 35.528 68.1048 35.5162 68.1048C32.3849 67.3486 29.998 64.7726 28.521 62.0194C24.5153 53.7126 24.3735 42.1445 31.5105 35.4801C31.7114 35.362 31.3805 35.9646 31.3923 35.9882C31.3923 36.0119 31.3451 35.9882 31.3451 35.9764L31.4987 35.5038L31.5696 35.551C25.4133 42.2745 24.338 53.9726 28.8518 61.8422C30.3289 64.5245 32.6803 67.0295 35.4926 68.0575L35.6344 67.8685C35.6462 67.8449 35.6934 67.8685 35.6698 67.8921Z" fill="#3C2B1F"/>
<path d="M35.457 67.3132L35.3389 67.514C35.3389 67.514 35.3152 67.5377 35.3034 67.5258C32.5148 66.7223 30.376 64.4182 29.0172 61.9249C25.2832 54.3389 24.9406 44.3423 30.3642 37.4771C30.3997 37.4298 30.4706 37.4771 30.4588 37.5244L30.2815 38.1506C30.2815 38.1624 30.2697 38.1743 30.2579 38.1624C30.2579 38.1624 30.2342 38.1506 30.2461 38.1388L30.3642 37.5007L30.4588 37.548C24.5861 46.4338 24.8342 62.1731 35.3389 67.4668L35.3034 67.4786C35.3152 67.4786 35.4688 67.1714 35.4807 67.3132H35.457Z" fill="#3C2B1F"/>
<path d="M35.2444 66.7105L35.1262 66.935C35.1262 66.935 35.1026 66.9586 35.0789 66.9468C32.633 66.1197 30.7424 64.0873 29.5135 61.8658C26.1104 55.0715 25.4723 46.4811 29.4308 39.7931C29.4544 39.734 29.5489 39.7576 29.5489 39.8285L29.4426 40.5848C29.4426 40.5966 29.4308 40.6084 29.4189 40.6084C29.4189 40.6084 29.3953 40.5966 29.3953 40.5848L29.4189 39.8167L29.5371 39.8521C25.4723 48.5371 25.8977 61.7004 35.1026 66.8878L35.0553 66.8996L35.1971 66.6987C35.1971 66.6987 35.2562 66.6987 35.2325 66.7223L35.2444 66.7105Z" fill="#3C2B1F"/>
<path d="M35.0671 66.0606L34.9371 66.3205C32.7984 65.6116 31.1205 63.6973 30.0216 61.7713C27.0439 55.9222 25.9095 47.9463 28.9936 42.2036V42.8653C28.9227 43.0307 28.8872 42.2036 28.8754 42.2154C27.3747 48.2535 26.6185 55.9104 30.3524 61.594C31.4277 63.4728 33.1529 65.2571 34.8781 66.2969L35.0317 66.0606C35.0435 66.037 35.0907 66.0606 35.0671 66.0842V66.0606Z" fill="#3C2B1F"/>
<path d="M34.8545 65.4226L34.7363 65.6825C34.7363 65.6825 34.7009 65.7061 34.6772 65.6943C30.9315 63.9928 29.4426 59.798 28.391 56.1113C27.3984 52.4483 27.3275 47.7572 28.7455 44.4605L28.8282 45.0868C28.8282 45.1104 28.7927 45.1222 28.7809 45.0868L28.6155 44.4723H28.7336C27.3393 51.8575 27.942 61.0033 34.7009 65.5998L34.6418 65.6116L34.7954 65.3753C34.7954 65.3753 34.8427 65.3753 34.8308 65.3989L34.8545 65.4226Z" fill="#3C2B1F"/>
<path d="M34.6654 64.69L34.5472 64.9972C34.5472 64.9972 34.4999 65.0326 34.4763 65.0208C31.345 63.3665 30.0689 59.8335 29.0408 56.6667C28.0719 53.5354 27.7292 49.5061 28.7809 46.5756L28.8872 47.001C28.8636 47.1546 28.6863 46.5993 28.6745 46.6111C28.7218 49.7187 28.4146 53.2991 29.2772 56.5958C30.0216 59.8453 31.9713 62.823 34.5354 64.9263L34.4645 64.9499L34.6299 64.6663C34.6299 64.6663 34.6772 64.6663 34.6654 64.69Z" fill="#3C2B1F"/>
<path d="M34.4645 63.9219L34.3581 64.2527C34.3581 64.2527 34.3109 64.3 34.2872 64.2764C31.6995 62.7166 30.6478 59.7507 29.6553 57.0566C28.6745 54.3153 28.4146 51.3139 28.899 48.4544C28.899 48.3953 28.9936 48.3717 29.0172 48.4308C29.0172 48.4662 29.2062 48.868 29.159 48.8798C29.1235 48.9034 28.9227 48.4899 28.9108 48.478L29.029 48.4544C29.0054 51.3376 29.2299 54.1853 29.8916 56.9739C30.5769 59.7507 32.3139 62.1849 34.3463 64.17L34.2636 64.1937L34.429 63.8864C34.429 63.8864 34.4763 63.8864 34.4763 63.9101L34.4645 63.9219Z" fill="#3C2B1F"/>
<path d="M34.2401 63.1775L34.1573 63.4847C34.1573 63.4847 34.0983 63.5438 34.0746 63.5202C31.9831 62.114 31.1678 59.6562 30.2698 57.4466C29.3599 55.2015 29.0173 52.7083 29.289 50.3096C29.289 50.2505 29.3836 50.2387 29.4072 50.2859C29.4072 50.3214 29.5963 50.6404 29.549 50.6641C29.5135 50.6877 29.3127 50.3687 29.289 50.3568L29.4072 50.3214C29.6199 52.7083 29.9035 55.0479 30.4943 57.3639C31.0969 59.6799 32.6094 61.6295 34.1337 63.4138L34.0392 63.4374L34.1928 63.1657C34.1928 63.1657 34.2401 63.1657 34.2401 63.1775Z" fill="#3C2B1F"/>
<path d="M34.0391 62.2794C34.0037 62.3976 34.0391 62.6339 33.9091 62.6575C33.531 62.3385 33.1647 61.9722 32.8457 61.5822C32.1603 60.8496 31.3096 58.6164 30.896 57.6947C30.0925 55.9223 29.7144 53.9489 29.8089 52.0111C29.8089 51.9402 29.9152 51.9165 29.9507 51.9756C29.9507 52.0111 30.187 52.3537 30.1398 52.3774C30.1161 52.4128 29.8325 52.0702 29.8207 52.0583L29.9625 52.0111C30.3052 53.9017 30.636 55.7568 31.1205 57.6002C31.5932 59.479 32.9402 60.9205 33.9564 62.5157L33.8382 62.5394C33.8501 62.5394 34.0037 62.1258 34.0273 62.2558L34.0391 62.2794Z" fill="#3C2B1F"/>
<path d="M33.8027 61.1923C33.7791 61.3459 33.8618 61.8777 33.6019 61.6768C32.4557 60.6842 32.1603 59.1717 31.4631 57.9074C30.8014 56.5958 30.4351 55.1424 30.4469 53.6654C30.4469 53.5945 30.5415 53.5708 30.5769 53.6299C30.5769 53.6654 30.7778 53.9135 30.7305 53.9371C30.7187 53.9726 30.4706 53.7244 30.4588 53.7244L30.5887 53.6654C31.0023 55.0479 31.3213 56.4186 31.6995 57.8011C32.0303 59.219 33.082 60.2825 33.7555 61.5468L33.5782 61.5823C33.6373 61.4995 33.72 61.0978 33.7909 61.1805L33.8027 61.1923Z" fill="#3C2B1F"/>
<path d="M33.4601 60.1525C33.7319 61.2986 32.5857 59.6207 32.5621 59.2899C32.3848 58.3091 30.9551 56.6903 31.3096 55.1896C31.3568 55.1896 31.3923 55.296 31.4159 55.3196C31.4395 55.4141 31.2977 55.296 31.2741 55.2842L31.3686 55.2369C31.8058 56.0877 32.054 56.9621 32.2667 57.8837C32.4203 58.8409 33.2356 59.4553 33.4956 60.377L33.3065 60.4242C33.3419 60.377 33.3892 60.0816 33.4601 60.1525Z" fill="#3C2B1F"/>
<path d="M32.7038 58.7109C32.2075 56.9502 32.1957 56.9621 33.1174 58.51C33.3065 58.7936 32.8102 59.0299 32.7038 58.7109Z" fill="#3C2B1F"/>
</g>
<mask id="mask1_1_1279" style="mask-type:luminance" maskUnits="userSpaceOnUse" x="28" y="33" width="13" height="38">
<path d="M38.5531 56.0996C37.9741 54.4098 36.946 52.8383 35.5045 51.3967C33.2594 49.1398 31.8769 46.552 31.4042 43.6807C30.9434 40.8093 31.4042 37.7844 32.7749 34.6767C32.8104 34.5821 32.834 34.4994 32.834 34.4167C32.834 34.334 32.8103 34.2631 32.7513 34.1922C32.7158 34.1331 32.6685 34.0859 32.6095 34.0386L32.7867 33.8259C32.8694 33.885 32.9285 33.9559 32.9876 34.0386C33.0585 34.1568 33.1058 34.2749 33.1058 34.4049C33.1058 34.5349 33.0821 34.6649 33.023 34.7948C31.676 37.8553 31.2152 40.8329 31.676 43.6452C32.1368 46.4575 33.4839 48.998 35.7053 51.2076C37.1705 52.6728 38.2104 54.2917 38.813 56.005C39.4156 57.7302 39.5692 59.5854 39.2857 61.535C39.073 62.9648 38.6358 64.4418 37.9622 65.9307C37.3832 67.2068 36.7452 68.2467 36.3198 68.8847C36.2489 68.9911 36.1425 69.0856 36.0362 69.1447C36.0007 69.1565 35.9771 69.1683 35.9417 69.1802L35.8471 68.9202C35.8471 68.9202 35.8944 68.8966 35.9062 68.8966C35.9889 68.8611 36.048 68.802 36.0953 68.7311C36.5207 68.1049 37.1469 67.0887 37.7259 65.8125C38.3876 64.3473 38.8248 62.9057 39.0257 61.4996C39.2975 59.5972 39.1439 57.7775 38.5649 56.0996H38.5531ZM39.971 61.6414C39.4747 65.0326 37.8323 67.8804 36.887 69.2747C36.7215 69.5228 36.4852 69.7119 36.2016 69.8182C36.178 69.8182 36.1662 69.83 36.1662 69.83L36.2607 70.09C36.2607 70.09 36.2843 70.09 36.308 70.0782C36.6388 69.9482 36.9106 69.7237 37.1115 69.4283C38.0568 68.0103 39.7347 65.1272 40.2428 61.6768C40.3373 60.9915 40.3964 60.3298 40.3964 59.6681C40.3964 56.2532 39.0493 53.1809 36.3907 50.5223C33.992 48.1236 32.6804 45.3586 32.4913 42.3218C32.3495 40.0531 32.834 37.6426 33.9211 35.1848C34.2637 34.4167 34.0511 33.5896 33.4012 33.0815L33.2239 33.2942C33.6493 33.625 34.0038 34.2986 33.6611 35.0784C32.5622 37.5835 32.0659 40.0176 32.2195 42.3336C32.4086 45.4531 33.7556 48.2654 36.2016 50.7113C39.3093 53.819 40.5854 57.4939 39.9828 61.6414H39.971ZM34.8191 52.0938C37.4069 54.6816 38.494 57.742 38.0686 61.1687C37.7259 63.9456 36.4616 66.3561 35.4572 67.9158L35.5635 68.1994C35.5635 68.1994 35.6108 68.1758 35.6344 68.1521C36.6743 66.5688 37.9859 64.0755 38.3522 61.2042C38.7894 57.6711 37.6786 54.5516 35.02 51.893C32.7985 49.6715 31.3806 47.131 30.8134 44.3424C30.2462 41.5537 30.5298 38.5997 31.6642 35.5629C31.6878 35.5038 31.6642 35.4329 31.6169 35.3975L31.2152 36.0237C30.2344 38.9187 30.0099 41.731 30.5534 44.4015C31.1324 47.2374 32.574 49.8251 34.8309 52.082L34.8191 52.0938ZM35.6581 68.4712L35.7526 68.7311C35.8117 68.7075 35.8589 68.6721 35.8944 68.6248C36.9933 66.9941 38.3876 64.43 38.8012 61.4287C39.3211 57.6947 38.1631 54.3744 35.3508 51.5621C33.0703 49.2698 31.6642 46.6465 31.1915 43.7397C30.7189 40.833 31.1915 37.7607 32.574 34.594C32.5977 34.5349 32.6095 34.4758 32.6095 34.4167C32.6095 34.3576 32.574 34.3222 32.5622 34.2986C32.5386 34.2631 32.5031 34.2277 32.4677 34.204L32.2904 34.4167H32.3023L32.3259 34.4404C32.3259 34.4404 32.3259 34.4522 32.3141 34.4758C30.8961 37.6898 30.4235 40.8093 30.9079 43.7752C31.3924 46.7293 32.8222 49.4116 35.15 51.7394C37.8913 54.4925 39.0257 57.7302 38.5294 61.3696C38.1277 64.3119 36.7452 66.8405 35.6581 68.4594H35.6463L35.6581 68.4712ZM29.6318 39.8404C29.6318 39.7813 29.5963 39.7104 29.5372 39.6986L29.3009 40.5021C29.1591 42.6763 29.4545 44.7678 30.1753 46.7411C30.9788 48.9389 32.3022 50.9713 34.1338 52.791C35.3745 54.0317 36.2252 55.3197 36.7097 56.7258C37.206 58.132 37.3242 59.609 37.0878 61.2278C36.9342 62.2558 36.6388 63.3193 36.2016 64.3946C35.8826 65.1863 35.4926 65.9779 35.0318 66.746L35.1263 67.0414C35.15 67.0414 35.1854 67.0178 35.1972 66.9941C35.6817 66.1788 36.1071 65.3399 36.4379 64.5009C36.8751 63.402 37.1824 62.3149 37.336 61.2633C37.5723 59.609 37.4423 58.0492 36.946 56.6195C36.4379 55.1779 35.5753 53.8545 34.2992 52.5783C32.5149 50.7822 31.2033 48.7853 30.4116 46.6229C29.6318 44.4724 29.36 42.1918 29.6081 39.8167L29.6318 39.8404ZM30.5653 45.4295C29.8681 42.9362 29.8563 40.2894 30.5416 37.5598C30.5534 37.5008 30.518 37.4299 30.4589 37.4062L30.1162 38.1507C29.5845 40.703 29.6436 43.1726 30.2935 45.5004C31.0025 48.0409 32.4086 50.3805 34.4764 52.4365C36.887 54.847 37.9386 57.6829 37.6077 60.8733C37.336 63.4965 36.1898 65.8243 35.2445 67.3368L35.3036 67.5022L35.3508 67.6204C35.3508 67.6204 35.4099 67.5968 35.4217 67.5731C36.3907 66.037 37.5959 63.6265 37.8795 60.897C38.2222 57.6238 37.1351 54.7052 34.6655 52.2356C32.6331 50.2032 31.2506 47.9227 30.5534 45.4177L30.5653 45.4295ZM33.9802 52.9328C32.444 51.3967 31.2388 49.6951 30.4116 47.8873C29.5963 46.0912 29.1355 44.1769 29.0646 42.2036C29.0646 42.1446 29.0173 42.0855 28.9464 42.0737L28.8283 42.8653C28.9701 44.6496 29.4309 46.3748 30.1753 48.0054C31.0143 49.8488 32.2313 51.5739 33.7911 53.1337C35.8235 55.1661 36.8042 57.5293 36.7097 60.1525C36.6388 62.0549 36.0126 64.0637 34.8427 66.1316L34.9373 66.4388C34.9373 66.4388 34.9964 66.4033 35.02 66.3797C36.2489 64.241 36.9106 62.1495 36.9933 60.1643C37.0878 57.4584 36.0835 55.0361 33.992 52.9446L33.9802 52.9328ZM36.048 50.865C33.5784 48.3954 32.2077 45.5595 31.995 42.4518C31.8296 40.0767 32.3259 37.5717 33.4602 34.9839C33.5666 34.7358 33.602 34.4876 33.5666 34.2513C33.5311 34.0386 33.4484 33.8732 33.3893 33.7786C33.3066 33.6605 33.2121 33.5423 33.0821 33.4596L32.9167 33.6723C33.0112 33.7432 33.0939 33.8377 33.1648 33.9323C33.2121 34.015 33.283 34.1331 33.3066 34.2986C33.3421 34.4876 33.3066 34.6885 33.2239 34.8776C32.0659 37.5008 31.5696 40.0531 31.7351 42.4754C31.9596 45.654 33.3421 48.5371 35.8708 51.0658C37.3596 52.5547 38.4231 54.1971 39.0257 55.9459C39.6283 57.6947 39.7938 59.5854 39.5102 61.5705C39.2975 63.0121 38.8485 64.5127 38.1749 66.0134C37.5959 67.3132 36.946 68.353 36.5088 69.0029C36.4143 69.1329 36.2843 69.251 36.1425 69.3219L36.0244 69.381L36.1189 69.641C36.1189 69.641 36.2252 69.6055 36.2725 69.5701C36.4616 69.4637 36.6152 69.3338 36.7333 69.1565C37.1824 68.4948 37.8323 67.4432 38.4231 66.1197C39.1084 64.5954 39.5693 63.083 39.7819 61.6059C40.0774 59.5854 39.9119 57.6475 39.2975 55.8514C38.6712 54.0672 37.5959 52.3774 36.0716 50.865H36.048ZM30.2344 49.2225C31.0615 50.7232 32.1368 52.1529 33.4484 53.4645C35.3154 55.3315 36.2489 57.4939 36.2252 59.8926C36.2016 61.665 35.6817 63.5438 34.6419 65.4698L34.7364 65.7889C34.7364 65.7889 34.7955 65.7534 34.8191 65.718C35.9062 63.7092 36.4734 61.7359 36.497 59.8926C36.5206 57.423 35.5517 55.1897 33.6375 53.2755C32.3495 51.9875 31.286 50.5814 30.4707 49.0925C29.6672 47.6273 29.1119 46.0557 28.8165 44.4487C28.8046 44.3896 28.7456 44.3424 28.6865 44.3424L28.6628 45.0868C28.9819 46.5166 29.5136 47.8991 30.2226 49.2225H30.2344ZM30.3526 50.3923C31.1088 51.5976 32.0305 52.7437 33.1058 53.819C34.181 54.8943 34.9136 56.005 35.339 57.1866C35.7526 58.3683 35.8589 59.6208 35.6581 61.0269C35.5517 61.7005 35.3863 62.4094 35.15 63.1184C34.9609 63.662 34.7246 64.2291 34.4646 64.7845L34.5592 65.1272C34.5946 65.1154 34.63 65.0917 34.6419 65.0563C34.9491 64.4418 35.209 63.8156 35.4099 63.2129C35.6581 62.4922 35.8353 61.7714 35.9298 61.086C36.1425 59.6444 36.0362 58.3446 35.599 57.1158C35.1736 55.8869 34.4174 54.7643 33.3066 53.6536C32.1959 52.5429 31.3333 51.4558 30.5889 50.2741C29.8563 49.1043 29.2655 47.8636 28.8519 46.5756C28.8283 46.5166 28.781 46.4811 28.7219 46.4811L28.7692 47.1783C29.1709 48.289 29.7027 49.3761 30.3526 50.4159V50.3923ZM30.4944 51.4676C31.1443 52.4129 31.9123 53.3109 32.7631 54.1617C33.7793 55.1897 34.4646 56.2177 34.8664 57.3403C35.2563 58.451 35.3508 59.6326 35.1618 60.956C35.0791 61.4996 34.9491 62.0786 34.7718 62.6576C34.63 63.1066 34.4528 63.5674 34.2519 64.0283L34.3465 64.3709C34.3465 64.3709 34.4174 64.3355 34.441 64.2882C34.6773 63.7683 34.8782 63.2366 35.0436 62.7285C35.2327 62.1377 35.3627 61.5469 35.4454 60.9797C35.6462 59.6208 35.5399 58.3919 35.1263 57.2457C34.7246 56.0877 34.0038 55.0125 32.9521 53.9726C32.1132 53.1337 31.3688 52.2475 30.7189 51.314C30.0808 50.3923 29.5254 49.4234 29.0882 48.419C29.0646 48.3717 29.0173 48.3363 28.9701 48.3363H28.9464L29.0646 48.998C29.4782 49.8488 29.9626 50.6641 30.5062 51.4558L30.4944 51.4676ZM30.6598 52.5074C31.1915 53.1928 31.7823 53.8663 32.4204 54.5044C33.3775 55.4615 34.0274 56.4422 34.4055 57.4821C34.7718 58.5219 34.8664 59.6326 34.6891 60.8733C34.63 61.2987 34.5237 61.7477 34.4055 62.1849C34.2992 62.5276 34.1928 62.8821 34.0629 63.2248L34.1456 63.5911C34.1456 63.5911 34.2283 63.5438 34.2401 63.5084C34.4055 63.0948 34.5473 62.6694 34.6655 62.2676C34.7955 61.8068 34.89 61.3578 34.9609 60.9206C35.15 59.6444 35.0554 58.4864 34.6655 57.3993C34.2874 56.3122 33.6139 55.3079 32.6213 54.3153C31.995 53.689 31.416 53.0273 30.8843 52.342C30.3644 51.6685 29.8917 50.9595 29.4782 50.2505C29.4545 50.2151 29.4073 50.1796 29.36 50.1796C29.3482 50.1796 29.3364 50.1796 29.3246 50.1796L29.5018 50.8059C29.8563 51.3849 30.2462 51.952 30.6716 52.5074H30.6598ZM30.8488 53.5118C31.227 53.9726 31.6405 54.4098 32.0777 54.847C32.9994 55.7687 33.602 56.6786 33.9447 57.6357C34.2874 58.5928 34.3701 59.6326 34.2047 60.8024C34.1574 61.0978 34.1101 61.3932 34.0274 61.7005C33.9802 61.9013 33.9211 62.1258 33.8502 62.3385L33.9329 62.7048V62.7285C33.9329 62.7285 34.0156 62.6812 34.0392 62.6339C34.1338 62.3385 34.2165 62.0431 34.2992 61.7595C34.3701 61.4523 34.441 61.1333 34.4764 60.8379C34.6537 59.6208 34.5592 58.5455 34.2047 57.5411C33.8384 56.5368 33.2121 55.5915 32.2668 54.6462C31.8414 54.2208 31.4278 53.7836 31.0497 53.3346C30.6716 52.8855 30.3171 52.4247 29.9863 51.952C29.9626 51.9166 29.9154 51.893 29.8799 51.893C29.8563 51.893 29.8445 51.893 29.8327 51.893L30.0453 52.4956C30.3053 52.8383 30.5653 53.1691 30.8488 53.5V53.5118ZM31.0615 54.4925C31.2742 54.7289 31.4987 54.9652 31.7351 55.1897C32.5858 56.0523 33.1648 56.8912 33.4839 57.8011C33.8029 58.6991 33.8856 59.6562 33.7202 60.7433C33.6966 60.8851 33.6729 61.0269 33.6493 61.1687C33.6493 61.216 33.6257 61.2633 33.6257 61.3105L33.7202 61.7477C33.7202 61.7477 33.8147 61.7005 33.8265 61.6532C33.862 61.5114 33.8974 61.3578 33.9211 61.216C33.9447 61.0742 33.9802 60.9206 34.0038 60.7788C34.1692 59.6562 34.0865 58.6519 33.7438 57.7066C33.4012 56.7731 32.8103 55.8869 31.9241 55.0006C31.6996 54.7761 31.4751 54.5398 31.2624 54.3035C31.0497 54.0672 30.837 53.8308 30.6362 53.5945C30.6125 53.5591 30.5653 53.5472 30.5298 53.5472C30.5062 53.5472 30.4944 53.5472 30.4707 53.5591L30.7307 54.1381C30.837 54.2562 30.9434 54.3744 31.0497 54.4925H31.0615ZM32.9876 57.8484C33.2476 58.5219 33.3539 59.2309 33.3066 60.0226L33.4366 60.5779C33.4957 60.5661 33.543 60.5188 33.543 60.4598C33.6611 59.4672 33.5548 58.581 33.2475 57.7538C32.9403 56.9267 32.385 56.1468 31.5815 55.3433L31.416 55.1661C31.416 55.1661 31.357 55.1306 31.3097 55.1306C31.2861 55.1306 31.2624 55.1306 31.2506 55.1543L31.5578 55.7214C32.2432 56.4304 32.704 57.1394 32.9876 57.8602V57.8484ZM32.9521 58.7464C33.0112 58.7228 33.0585 58.6519 33.0467 58.581C32.9876 58.3092 32.9049 58.0492 32.7985 57.7893C32.6922 57.5293 32.5622 57.2812 32.4086 57.0212C32.385 56.9858 32.3377 56.9621 32.2904 56.9621C32.2668 56.9621 32.255 56.9621 32.2313 56.974L32.5977 57.8011L32.9403 58.7346L32.9521 58.7464Z" fill="white"/>
</mask>
<g mask="url(#mask1_1_1279)">
<path d="M35.2327 69.9837C37.0878 70.3618 37.7023 67.7267 38.4467 66.4742C39.841 63.3429 40.5263 59.7626 39.5929 56.4068C38.943 53.8545 37.3123 51.7512 35.5044 49.8842C31.7941 45.8903 31.1915 39.8522 33.6847 35.0666C34.0983 34.2985 33.6729 33.3178 32.893 32.9279C33.7556 33.1169 34.3228 34.2985 33.9092 35.1611C31.8532 39.8876 31.9123 45.8785 35.6344 49.766C37.5014 51.6094 39.2856 53.689 40.0064 56.2886C41.0581 59.7153 40.3373 63.4729 38.7421 66.616C37.9977 67.8567 36.9696 70.7281 35.2327 69.9837Z" fill="#3C2B1F"/>
<path d="M32.8693 33.436C33.8737 33.9559 33.4956 34.9366 33.1529 35.7165C32.8575 36.4964 32.633 37.2999 32.4439 38.1152C31.1441 43.0899 32.8693 48.3599 36.7923 51.6685C41.5779 56.4895 40.5026 64.2646 36.5678 69.2629C36.2724 69.5819 35.6934 69.7355 35.3389 69.5465C35.7407 69.5819 36.2015 69.511 36.4615 69.1683C39.9118 64.0637 41.0225 56.7258 36.6033 51.8457C32.054 47.521 30.1988 41.5301 32.9402 35.6456C33.082 35.2439 33.3538 34.8894 33.3892 34.4994C33.4247 34.1095 33.2002 33.6959 32.8457 33.4832C32.822 33.4714 32.8457 33.4242 32.8693 33.4478V33.436Z" fill="#3C2B1F"/>
<path d="M32.3022 33.7668C32.7276 33.7432 33.1648 34.1922 33.0111 34.653L32.5858 35.811C30.5888 41.1402 31.475 47.6391 35.9416 51.4676C41.0462 56.1114 40.1718 64.0046 36.0715 68.9911C35.9061 69.1211 35.5871 69.1683 35.4335 69.0502C35.9298 69.0856 36.1188 68.8493 36.3433 68.4239C39.5928 63.2838 40.3254 56.2295 35.7525 51.633C31.5223 47.6037 29.8562 41.1402 32.3494 35.7165C32.5739 35.0666 33.4247 34.015 32.2785 33.8023C32.2549 33.8023 32.2549 33.755 32.2785 33.755L32.3022 33.7668Z" fill="#3C2B1F"/>
<path d="M32.3022 34.2631C32.6094 34.3104 32.5031 34.5822 32.4204 34.7712L32.2195 35.3266L31.865 36.4373C30.2107 41.6128 31.1324 47.7573 35.3035 51.503C40.3609 55.9105 39.8292 63.213 36.048 68.2703L35.8707 68.5066C35.8353 68.6012 35.6935 68.6721 35.5989 68.6248C35.5871 68.6248 35.5753 68.613 35.5871 68.6012C35.5871 68.6012 35.5989 68.5894 35.6108 68.5894C35.8116 68.6366 35.8471 68.3648 35.9652 68.2231L36.2607 67.715C39.2974 62.6458 39.6283 56.0169 35.1263 51.6921C30.8606 47.4501 29.3836 40.7621 32.0895 35.2793L32.3377 34.7476C32.4204 34.594 32.5503 34.3931 32.314 34.3222C32.2786 34.3222 32.2786 34.2749 32.314 34.2749L32.3022 34.2631Z" fill="#3C2B1F"/>
<path d="M31.1797 35.8347L31.5106 35.4802C31.5106 35.4802 31.5578 35.4566 31.5696 35.4802C30.7307 38.3043 30.2935 41.2938 30.837 44.1888C31.2742 47.0838 32.7867 49.8015 34.9255 51.8103C36.0007 52.8383 36.9578 54.0318 37.5959 55.4024C39.6165 59.5736 38.1513 64.5364 35.5517 68.1049C35.5517 68.1049 35.5281 68.1167 35.5163 68.1167L35.3272 68.0458C35.3272 68.0458 35.3036 68.034 35.3154 68.0222C35.3154 67.9749 35.5163 68.0695 35.5399 68.0577L35.5044 68.0695C38.683 63.1421 39.2857 56.2768 34.7482 51.9994C30.4825 47.7455 28.8755 41.0457 31.5106 35.5157L31.5814 35.5629L31.227 35.882C31.227 35.882 31.1797 35.8702 31.1915 35.8465L31.1797 35.8347Z" fill="#3C2B1F"/>
<path d="M30.128 37.8552L30.3762 37.4771C30.3762 37.4771 30.4116 37.4535 30.4353 37.4653C29.9744 40.1358 29.9153 42.9244 30.6598 45.5358C31.2978 48.159 32.8103 50.5577 34.8191 52.3892C39.2502 56.3122 38.7185 63.1302 35.3154 67.5259C35.2917 67.514 35.1145 67.4668 35.1381 67.4313C35.1381 67.3959 35.3154 67.4668 35.339 67.4668L35.3036 67.4786C38.104 62.8702 38.7066 56.6313 34.6418 52.5665C30.7543 48.7025 28.5328 42.8653 30.3762 37.5007L30.4589 37.5362L30.1753 37.8789C30.1753 37.8789 30.1162 37.8789 30.1399 37.8552H30.128Z" fill="#3C2B1F"/>
<path d="M29.2772 40.1949L29.4663 39.7931C29.4663 39.7931 29.5017 39.7577 29.5253 39.7695C29.4663 42.2391 29.7498 44.7323 30.6479 47.0365C31.4514 49.3643 32.9402 51.4085 34.7836 53.0746C38.742 56.7849 38.0449 62.8467 35.0908 66.9351C35.0672 66.9233 34.9017 66.876 34.9254 66.8287C34.9372 66.7933 35.0908 66.876 35.1144 66.876C42.3696 52.3066 27.4457 53.1219 29.4544 39.8049L29.5372 39.8286C29.5135 39.8286 29.2772 40.3367 29.2654 40.1831L29.2772 40.1949Z" fill="#3C2B1F"/>
<path d="M28.7336 42.6527L28.8754 42.18C28.8754 42.18 28.97 42.1327 28.9818 42.18C29.1945 44.3896 29.8207 46.5166 30.7779 48.5017C31.6759 50.5695 33.1647 52.212 34.7599 53.7718C38.0449 57.1512 37.5722 62.7639 34.9017 66.3206C34.8899 66.3088 34.6536 66.2143 34.7717 66.1906L34.9372 66.2615C41.1525 53.3109 28.6982 53.3936 28.8991 42.1918L29.0054 42.2036L28.8045 42.6527C28.8045 42.6527 28.7573 42.6527 28.7573 42.6408L28.7336 42.6527Z" fill="#3C2B1F"/>
<path d="M28.5682 44.8741L28.651 44.4605C28.651 44.4605 28.7337 44.4014 28.7455 44.4605C29.2299 46.3748 30.0098 48.1708 30.9788 49.8606C31.8886 51.6448 33.3302 52.98 34.6654 54.4453C37.4068 57.5529 37.005 62.504 34.6891 65.6825L34.5236 65.5762C34.4646 65.4698 34.7009 65.6116 34.7245 65.6116C39.8173 53.7481 29.8562 54.0908 28.6391 44.4723H28.7455L28.6155 44.8741C28.6155 44.8741 28.5682 44.8859 28.5682 44.8741Z" fill="#3C2B1F"/>
<path d="M28.6392 46.9892L28.6746 46.5875C28.6746 46.5875 28.7573 46.5166 28.781 46.5756C29.4308 48.1826 30.2698 49.6715 31.2151 51.1013C32.0895 52.6137 33.4247 53.7245 34.5237 55.0715C36.8751 57.872 36.3788 62.1495 34.4882 65.009C34.4764 64.9736 34.2992 64.9027 34.3346 64.8554C34.3582 64.8199 34.5118 64.9381 34.5355 64.9381C38.5294 53.9726 30.9433 55.0243 28.6864 46.6111H28.7928L28.6982 47.001C28.6982 47.001 28.651 47.0247 28.651 47.001L28.6392 46.9892Z" fill="#3C2B1F"/>
<path d="M28.911 48.8089V48.4662C28.911 48.4662 28.9819 48.3953 29.0055 48.4426C29.7263 49.7542 30.5535 50.9831 31.4161 52.1765C32.2314 53.4409 33.4012 54.398 34.2874 55.615C36.2607 58.1555 35.7999 61.5941 34.3347 64.2527C34.3347 64.2764 34.2992 64.2882 34.2756 64.2645C34.2638 64.2291 34.0865 64.1228 34.1102 64.0873C34.1338 64.0637 34.2992 64.1936 34.3229 64.1936C35.0318 61.6059 35.7881 58.321 34.0747 55.745C33.3539 54.4334 32.1014 53.5472 31.1325 52.3892C30.1517 51.243 29.4073 49.896 28.911 48.478H29.0174L28.9583 48.7971C28.9583 48.8207 28.911 48.8207 28.911 48.7971V48.8089Z" fill="#3C2B1F"/>
<path d="M29.3245 50.6168L29.2891 50.3096C29.2891 50.3096 29.3127 50.2505 29.3363 50.2505C30.2107 51.1603 30.837 52.2947 31.6996 53.2164C33.2121 55.1779 35.339 57.0803 35.1499 59.8098C35.079 61.0387 34.7364 62.5394 34.0747 63.4965C34.0628 63.4611 33.8856 63.3311 33.921 63.2956C33.9447 63.2602 34.1101 63.4256 34.1337 63.4256C34.5355 61.2632 35.1499 58.4982 33.8383 56.2886C33.3066 55.1542 32.3022 54.3507 31.4278 53.4527C30.4825 52.5901 29.9153 51.4203 29.2891 50.345L29.3954 50.3214C29.3954 50.3214 29.3718 50.7468 29.3127 50.6286L29.3245 50.6168Z" fill="#3C2B1F"/>
<path d="M29.8917 52.5074C29.8562 52.3302 29.6672 51.8102 29.9507 51.9875C31.8059 54.2798 34.6182 56.4304 34.6654 59.6208C34.6654 60.6724 34.37 61.6886 33.9446 62.6221C33.9328 62.6576 33.8856 62.6576 33.8619 62.6221C33.6256 62.3149 33.6965 62.3385 33.9328 62.5512C34.0274 60.7788 34.5355 58.6991 33.5547 56.7849C32.7276 54.9297 30.6834 53.949 29.7971 52.082L29.9507 52.0229C29.9271 52.1529 29.9744 52.5665 29.8798 52.4956L29.8917 52.5074Z" fill="#3C2B1F"/>
<path d="M30.577 54.1026C30.5416 53.9608 30.2935 53.4999 30.577 53.5945C31.7705 54.5752 32.6685 55.8277 33.4838 57.1275C34.3228 58.4628 34.3464 60.2234 33.732 61.6413C33.7202 61.6886 33.6493 61.6886 33.6256 61.6413C33.6256 61.6059 33.472 61.4168 33.5193 61.3932C33.5429 61.3696 33.7084 61.5586 33.732 61.5586L33.6256 61.5822C33.7556 60.0698 33.7792 58.6282 33.2475 57.2339C32.7749 55.745 31.1915 55.0715 30.4589 53.7244L30.6243 53.6535C30.6007 53.7363 30.6716 54.1498 30.5652 54.0907L30.577 54.1026Z" fill="#3C2B1F"/>
<path d="M31.345 55.5205C30.7778 54.5162 32.3494 55.9341 32.4085 56.2413C33.1175 57.5411 34.11 58.9118 33.4838 60.4479C33.4838 60.5306 33.3656 60.5661 33.3301 60.4834C33.3301 60.4479 33.2238 60.2352 33.2711 60.2234C33.2947 60.2116 33.4483 60.3888 33.4719 60.3888L33.3183 60.4243C33.0938 59.0418 33.2711 57.423 32.1367 56.4422C31.794 56.1114 31.5223 55.7332 31.2269 55.3197L31.3805 55.2369C31.3805 55.2369 31.4159 55.5678 31.3214 55.5205H31.345Z" fill="#3C2B1F"/>
<path d="M32.4912 56.9858L32.7748 57.7893L32.9166 58.6164C32.6567 58.0374 32.4912 57.742 32.1013 57.2339C31.865 56.9503 32.3494 56.6549 32.4912 56.9976V56.9858Z" fill="#3C2B1F"/>
</g>
<mask id="mask2_1_1279" style="mask-type:luminance" maskUnits="userSpaceOnUse" x="39" y="31" width="13" height="38">
<path d="M42.7123 43.4207L42.3696 42.4872C42.4287 42.4636 42.4996 42.499 42.5351 42.5581C42.6414 42.7944 42.7596 43.0426 42.8541 43.2907C42.9605 43.5507 43.055 43.8106 43.1495 44.0706C43.1731 44.1297 43.1495 44.2006 43.0904 44.236L42.7241 43.4089L42.7123 43.4207ZM42.9841 43.1844C43.2795 43.9288 43.5394 44.7086 43.7521 45.5358L44.0594 46.103C44.0594 46.103 44.1421 46.0084 44.1303 45.9494C43.9057 44.945 43.6103 43.976 43.2322 43.078C42.8777 42.2154 42.4642 41.4355 42.0152 40.7266C41.9797 40.6793 41.9206 40.6439 41.8734 40.6675L42.0033 41.2229C42.3696 41.8255 42.6887 42.4754 42.9841 43.1844ZM43.7049 42.9598C43.1613 41.6364 42.4996 40.4902 41.7316 39.5331C41.6961 39.4977 41.6489 39.474 41.5898 39.4859L41.6843 39.9231C42.3696 40.8093 42.9486 41.8609 43.4449 43.0544C43.953 44.3069 44.3311 45.6658 44.5675 47.0955L44.8274 47.6745C44.8865 47.6509 44.922 47.5918 44.9101 47.5327C44.6856 45.9021 44.2721 44.366 43.7049 42.9598ZM42.7714 37.7725C42.1806 37.1108 41.5425 36.5672 40.8808 36.1537C40.8453 36.13 40.8099 36.13 40.7744 36.13L40.869 36.4609C41.4598 36.8508 42.0388 37.3471 42.5705 37.9497C43.1495 38.5878 43.7049 39.3441 44.2012 40.183C45.0401 41.6128 45.69 43.2316 46.1272 45.0277C46.5762 46.8119 46.8007 48.6907 46.8007 50.6168C46.8007 51.2903 46.7653 51.9756 46.7062 52.6492C46.6708 53.1336 46.6117 53.6063 46.5408 54.0789L46.588 54.7761C46.6471 54.7761 46.7062 54.7288 46.718 54.6579C46.8362 54.008 46.9189 53.3345 46.978 52.661C47.0371 51.9757 47.0607 51.2903 47.0607 50.605C47.0607 48.6553 46.8362 46.7529 46.3753 44.945C45.9263 43.1371 45.2646 41.4828 44.4257 40.0412C43.9294 39.1786 43.3622 38.4106 42.7596 37.7607L42.7714 37.7725ZM47.2852 50.6168C47.2852 51.6684 47.2143 52.7201 47.0843 53.7481C46.978 54.5634 46.8244 55.3669 46.6471 56.1468L46.6235 56.8912C46.6826 56.8912 46.7417 56.8558 46.7535 56.7967C47.0134 55.8278 47.2143 54.8116 47.3561 53.7835C47.4979 52.7437 47.557 51.6802 47.557 50.6168C47.557 47.261 46.8953 44.0233 45.6309 41.2583C44.3902 38.5524 42.6296 36.4963 40.6681 35.4565C40.6327 35.4329 40.5854 35.4329 40.5618 35.4565L40.6563 35.7756C42.5114 36.8036 44.1893 38.7887 45.371 41.3883C46.6117 44.1178 47.2734 47.3082 47.2734 50.6286L47.2852 50.6168ZM45.9972 51.054C46.0563 51.0422 46.1036 50.9831 46.1036 50.924V50.6168C46.1036 47.8281 45.6191 45.1104 44.6974 42.7826C43.8585 40.632 42.6769 38.8714 41.3062 37.678C41.2707 37.6543 41.2235 37.6425 41.188 37.6425L41.2707 38.0088C42.5469 39.1668 43.6458 40.8447 44.4493 42.8771C45.3473 45.134 45.82 47.7336 45.8436 50.4277L46.0209 51.054H45.9972ZM45.4773 49.3288C45.5364 49.3052 45.5718 49.2461 45.5718 49.187C45.4773 47.6273 45.2174 46.1148 44.8156 44.685C44.402 43.2552 43.8585 41.9318 43.1731 40.7738C42.925 40.3484 42.6532 39.9349 42.3696 39.5686C42.086 39.1905 41.7906 38.8478 41.4952 38.5406C41.4598 38.5051 41.4125 38.4933 41.3653 38.5051V38.5287L41.4598 38.895C41.6961 39.155 41.9324 39.4386 42.1569 39.734C42.4287 40.1003 42.7005 40.5021 42.9368 40.9156C43.5985 42.0618 44.1421 43.3498 44.5438 44.7559C44.8983 46.0203 45.1465 47.3437 45.2528 48.7144L45.4655 49.317L45.4773 49.3288ZM41.0935 36.8981C41.0935 36.8981 41.0108 36.8627 40.9753 36.8745L41.0699 37.2171C42.4996 38.3397 43.7876 40.1358 44.7093 42.2745C45.7609 44.7441 46.3163 47.6273 46.3163 50.6168C46.3163 50.9831 46.3163 51.3376 46.2926 51.6921C46.2926 51.8693 46.269 52.0584 46.2572 52.2356L46.3753 52.8973C46.4344 52.8855 46.4817 52.8382 46.4935 52.7792C46.529 52.4129 46.5526 52.0584 46.5762 51.7039C46.588 51.3494 46.5999 50.9831 46.5999 50.6168C46.5999 47.5918 46.0327 44.6732 44.9692 42.1682C44.0003 39.9112 42.6296 38.0325 41.1053 36.8981H41.0935ZM43.7049 65.8361C43.7049 65.8361 43.7521 65.8598 43.7876 65.8598C43.823 65.8598 43.8585 65.8479 43.8821 65.8243C45.6073 64.2055 47.0371 61.9604 48.006 59.3254C48.9867 56.6785 49.5067 53.6772 49.5067 50.6286C49.5067 46.5284 48.5259 42.4872 46.7535 39.2614C44.981 36.0237 42.5114 33.8141 39.8291 33.046C39.8055 33.046 39.7701 33.046 39.7464 33.046L39.8528 33.3296C42.4287 34.1095 44.792 36.2482 46.5171 39.3913C48.266 42.5817 49.2349 46.5756 49.2349 50.6286C49.2349 53.6417 48.7268 56.6194 47.746 59.2427C46.8598 61.6177 45.6191 63.6737 44.1066 65.2217L43.7049 65.8479V65.8361ZM40.3727 34.8066L40.4672 35.1138C42.5114 36.0946 44.3548 38.127 45.6664 40.8565C47.0252 43.6806 47.7697 47.1428 47.7697 50.6168C47.7697 52.082 47.6279 53.559 47.3679 54.9888C47.1552 56.1704 46.848 57.3048 46.4699 58.3801L46.3517 59.1718H46.3753C46.4344 59.1718 46.4817 59.1363 46.5053 59.089C47.0016 57.8129 47.3797 56.454 47.6397 55.0361C47.8996 53.5945 48.0414 52.1056 48.0414 50.6168C48.0414 47.1074 47.2852 43.5979 45.9145 40.7384C44.5438 37.9025 42.606 35.7874 40.4672 34.8066C40.4318 34.7948 40.4081 34.783 40.3727 34.8066ZM40.1718 34.204L40.2663 34.4994C42.4878 35.4211 44.4966 37.4889 45.95 40.3603C47.4388 43.3025 48.2541 46.9537 48.2541 50.6168C48.2541 52.5665 48.0296 54.5043 47.5806 56.3595C47.2025 57.9429 46.6708 59.4081 46.009 60.7551L45.7727 61.5586C45.7727 61.5586 45.7964 61.5586 45.8082 61.5586C45.8554 61.5586 45.9027 61.535 45.9263 61.4877C46.7535 59.9634 47.3916 58.2619 47.8406 56.4186C48.3014 54.5398 48.5259 52.5901 48.5259 50.6168C48.5259 46.9065 47.6988 43.2198 46.1863 40.2421C44.6856 37.2644 42.5705 35.1138 40.2545 34.204C40.2309 34.204 40.1955 34.204 40.16 34.204H40.1718ZM48.7504 50.6168C48.7504 53.0627 48.3841 55.5442 47.6988 57.7893C47.0961 59.7626 46.2336 61.5823 45.2055 63.0947L44.8629 63.8392C44.8629 63.8392 44.8983 63.851 44.922 63.851C44.9692 63.851 45.0047 63.8274 45.0283 63.7919C46.2572 62.1613 47.2734 60.1171 47.9587 57.872C48.6559 55.5914 49.0222 53.0864 49.0222 50.6168C49.0222 46.7056 48.1242 42.8417 46.4817 39.734C44.8392 36.6145 42.5587 34.4403 40.0537 33.6014C40.03 33.6014 39.9946 33.6014 39.9709 33.6014L40.0182 33.7195L40.0773 33.885C42.476 34.7239 44.662 36.839 46.2454 39.8522C47.8642 42.9244 48.7622 46.741 48.7622 50.605L48.7504 50.6168ZM39.7582 32.5025C39.7582 32.5025 39.7228 32.5025 39.711 32.5025C39.711 32.5025 39.6755 32.5025 39.6637 32.5025C39.6283 32.5025 39.5928 32.5025 39.5574 32.5261L39.6519 32.786H39.6874C41.0226 33.1287 42.3224 33.8259 43.5158 34.8421C44.7211 35.8583 45.7964 37.1699 46.718 38.7296C47.6751 40.3721 48.4196 42.239 48.9395 44.2714C49.4476 46.3157 49.7194 48.4544 49.7194 50.6286C49.7194 53.9962 49.0931 57.2811 47.9233 60.1171C46.7535 62.953 45.0756 65.2689 43.055 66.8051C43.0432 66.8169 43.0314 66.8287 43.0195 66.8287L42.8423 67.0414C42.8423 67.0414 42.8541 67.0414 42.8659 67.0532C42.9014 67.0768 42.9605 67.1005 43.0314 67.1005C43.0668 67.1005 43.1022 67.1005 43.1377 67.0768C43.1613 67.065 43.1968 67.0414 43.2322 67.0177C45.2764 65.458 47.0016 63.1066 48.1951 60.2234C49.3767 57.3402 50.0148 54.0199 50.0148 50.6286C50.0148 48.4308 49.7548 46.2684 49.2349 44.2124C48.715 42.1445 47.9587 40.2539 46.978 38.5878C46.0563 37.0044 44.9574 35.6692 43.7285 34.6294C42.4878 33.5895 41.1644 32.8806 39.7937 32.5143L39.7582 32.5025ZM39.8291 31.5335C39.6283 31.5099 39.4038 31.5335 39.2147 31.6044L39.3092 31.8644C39.4156 31.8289 39.5456 31.8053 39.6637 31.8053C39.711 31.8053 39.7582 31.8053 39.8055 31.8053C39.841 31.8053 39.8882 31.8171 39.9355 31.8289C42.9486 32.6088 45.6782 34.9248 47.6397 38.3397C49.613 41.7664 50.6883 46.1266 50.6883 50.6168C50.6883 54.1262 50.0266 57.5529 48.7859 60.5424C47.5452 63.5201 45.7609 65.9425 43.634 67.5731C43.5394 67.644 43.4331 67.7031 43.3268 67.7385C43.0668 67.8331 42.7714 67.8094 42.5233 67.6676C42.476 67.644 42.4287 67.6086 42.3933 67.5849L42.2278 67.7976C42.2278 67.7976 42.3342 67.8803 42.3933 67.9158C42.5823 68.0221 42.795 68.0812 43.0195 68.0812C43.1613 68.0812 43.3031 68.0576 43.4331 68.0103C43.5631 67.963 43.6931 67.8922 43.8112 67.7976C45.9854 66.1552 47.7933 63.6856 49.0458 60.6606C50.2983 57.6475 50.9719 54.1735 50.9719 50.6404C50.9719 46.103 49.873 41.6955 47.876 38.2215C45.8791 34.7475 43.0786 32.3843 40.0064 31.5808C39.9473 31.569 39.9 31.5572 39.841 31.5453L39.8291 31.5335ZM51.1728 50.6168C51.1728 54.2562 50.4756 57.8129 49.164 60.8851C47.8878 63.8746 46.0799 66.3206 43.9294 67.9512C43.244 68.4711 42.5114 68.2821 42.0861 67.9512L41.9088 68.1639C42.2397 68.4239 42.6178 68.5539 42.9959 68.5539C43.374 68.5539 43.7521 68.4357 44.083 68.1757C46.269 66.5096 48.1005 64.0282 49.4003 61.0033C50.7237 57.8956 51.4327 54.3035 51.4327 50.6286C51.4327 45.9494 50.2865 41.4119 48.1951 37.8552C46.1272 34.3222 43.2559 31.9235 40.1009 31.1081C39.7346 31.0136 39.3683 31.0372 39.0256 31.1554L39.1202 31.4154C39.4156 31.309 39.7228 31.2972 40.03 31.3681C43.1023 32.1716 45.9145 34.523 47.9469 37.997C50.0148 41.5183 51.1491 46.0084 51.1491 50.6286L51.1728 50.6168ZM43.1731 67.2659C43.0313 67.325 42.8896 67.3013 42.7596 67.2304C42.7359 67.2186 42.7241 67.2068 42.7005 67.195L42.5233 67.4077C42.5233 67.4077 42.5823 67.4549 42.6178 67.4668C42.7359 67.5377 42.8777 67.5731 43.0077 67.5731C43.0904 67.5731 43.185 67.5613 43.2677 67.5258C43.3504 67.4904 43.4331 67.4431 43.504 67.3959C45.6191 65.7889 47.3797 63.3783 48.6086 60.4243C49.8375 57.4702 50.4756 54.0789 50.4756 50.6168C50.4756 46.1857 49.4121 41.8846 47.4861 38.4933C45.56 35.102 42.8541 32.7979 39.8764 32.0298C39.841 32.0298 39.8055 32.018 39.7701 32.0062C39.6401 31.9944 39.5101 32.0062 39.3919 32.0534L39.4865 32.3016C39.5456 32.2779 39.6046 32.2661 39.6637 32.2661C39.6873 32.2661 39.711 32.2661 39.7346 32.2661C39.7582 32.2661 39.7819 32.2661 39.8055 32.2779C42.7123 33.0342 45.3592 35.2793 47.2498 38.6115C49.1522 41.9555 50.2038 46.2093 50.2038 50.5931C50.2038 54.0317 49.5657 57.3875 48.3605 60.2943C47.1552 63.2011 45.4301 65.5762 43.3504 67.1477C43.2913 67.1832 43.2322 67.2186 43.185 67.2423L43.1731 67.2659Z" fill="white"/>
</mask>
<g mask="url(#mask2_1_1279)">
<path d="M41.6608 67.6676C43.2796 69.5582 45.1348 66.8878 46.2219 65.6943C53.2053 56.4658 53.158 41.1756 44.0004 33.3887C43.2323 32.7742 42.4052 32.2425 41.5072 31.8407C40.6328 31.5099 39.6284 30.8836 38.7422 31.4626C38.7185 31.4744 38.6949 31.439 38.7185 31.4272C39.1321 31.1318 39.6756 31.0254 40.1719 31.1672C41.6371 31.5099 43.0196 32.1952 44.2131 33.1051C53.0635 40.3012 53.8315 57.3875 46.4818 65.8952C45.4656 66.8641 44.414 68.4711 42.8897 68.4711C42.3579 68.4239 41.9326 68.093 41.6253 67.6913C41.6017 67.6676 41.649 67.644 41.6608 67.6676Z" fill="#3C2B1F"/>
<path d="M39.1084 31.7698C39.522 31.498 40.0419 31.6516 40.4673 31.7698C43.6222 32.6442 46.1273 35.1256 47.7461 37.9024C52.3899 46.6701 52.4844 59.0063 45.3001 66.4505C44.4848 67.2304 42.9014 68.8965 42.0152 67.3722C42.2634 67.6322 42.606 67.9039 43.0078 67.8685C43.4568 67.8685 43.7758 67.5022 44.1303 67.2068C45.1583 66.3087 46.0446 65.2571 46.8008 64.1227C51.5746 56.4894 52.189 45.8666 47.4271 38.0915C45.7846 35.3974 43.4568 32.9869 40.4318 31.9116C40.0065 31.758 39.5574 31.5926 39.1321 31.8171C39.1084 31.8289 39.0848 31.7934 39.1084 31.7816V31.7698Z" fill="#3C2B1F"/>
<path d="M39.333 32.1952C39.5339 32.0771 39.7938 32.0889 40.0065 32.1598C43.3505 32.9396 45.9501 35.5865 47.5571 38.5051C51.4919 46.4102 51.8464 56.7967 46.5764 64.1937C45.6193 65.4344 44.5676 66.6869 43.1851 67.4549C42.9606 67.5258 42.6297 67.4195 42.5352 67.2423C42.7125 67.325 42.9488 67.4668 43.1615 67.3722C44.414 66.5096 45.4302 65.2571 46.3046 64.0164C50.972 56.6313 51.681 46.3511 47.2263 38.706C45.5129 35.811 42.7125 32.6561 39.333 32.207V32.1952Z" fill="#3C2B1F"/>
<path d="M39.5811 32.6206C46.6944 34.1685 49.294 42.3927 49.9203 48.7971C50.4284 54.6816 49.0459 61.1214 44.8511 65.4934C44.3312 66.037 43.7522 66.5096 43.1496 66.9468C43.055 67.0414 42.8896 66.9705 42.8305 66.8759C42.8187 66.8523 42.8542 66.8287 42.866 66.8523C43.0196 67.0532 43.185 66.805 43.3386 66.6869C43.8231 66.2733 44.2603 65.8125 44.6857 65.3516C52.3426 56.3595 51.6927 37.3117 39.5811 32.6442V32.6206Z" fill="#3C2B1F"/>
<path d="M39.6402 33.3414L39.7584 33.1405C39.7584 33.1405 39.782 33.1287 39.7938 33.1287C42.9251 33.885 45.312 36.4609 46.789 39.2141C50.7947 47.5209 50.9365 59.089 43.7995 65.7534C43.5986 65.8716 43.9295 65.2689 43.9177 65.2453C43.9177 65.2217 43.9649 65.2453 43.9649 65.2571L43.8113 65.7298L43.7404 65.6825C49.8967 58.9591 50.972 47.261 46.4582 39.3913C44.9811 36.7091 42.6297 34.204 39.8174 33.176L39.6756 33.365C39.6638 33.3887 39.6166 33.365 39.6402 33.3414Z" fill="#3C2B1F"/>
<path d="M39.8529 33.9203L39.971 33.7195C39.971 33.7195 39.9947 33.6958 40.0065 33.7077C42.7951 34.5112 44.9338 36.8153 46.2927 39.3086C50.0267 46.8946 50.3693 56.8912 44.9457 63.7564C44.9102 63.8037 44.8393 63.7564 44.8511 63.7091L45.0284 63.0829C45.0284 63.0711 45.0402 63.0592 45.052 63.0711C45.052 63.0711 45.0756 63.0829 45.0638 63.0947L44.9457 63.7328L44.8511 63.6855C50.7238 54.7997 50.4757 39.0604 39.971 33.7667L40.0065 33.7549C39.9947 33.7549 39.841 34.0621 39.8292 33.9203H39.8529Z" fill="#3C2B1F"/>
<path d="M40.0656 34.523L40.1837 34.2985C40.1837 34.2985 40.2073 34.2749 40.231 34.2867C42.6769 35.1138 44.5675 37.1462 45.7964 39.3677C49.1995 46.162 49.8376 54.7525 45.8791 61.4405C45.8555 61.4995 45.761 61.4759 45.761 61.405L45.8673 60.6488C45.8673 60.6369 45.8792 60.6251 45.891 60.6251C45.891 60.6251 45.9146 60.6369 45.9146 60.6488L45.891 61.4168L45.7728 61.3814C49.8376 52.6964 49.4122 39.5331 40.2073 34.3458L40.2546 34.334L40.1128 34.5348C40.1128 34.5348 40.0537 34.5348 40.0774 34.5112L40.0656 34.523Z" fill="#3C2B1F"/>
<path d="M40.2429 35.1729L40.3728 34.913C42.5116 35.6219 44.1895 37.5362 45.2884 39.4622C48.2661 45.3113 49.4005 53.2872 46.3164 59.0299V58.3682C46.3873 58.2028 46.4228 59.0299 46.4346 59.0181C47.9352 52.98 48.6915 45.3231 44.9575 39.6395C43.8823 37.7607 42.1571 35.9764 40.4319 34.9366L40.2783 35.1729C40.2665 35.1966 40.2192 35.1729 40.2429 35.1493V35.1729Z" fill="#3C2B1F"/>
<path d="M40.4556 35.811L40.5737 35.551C40.5737 35.551 40.6092 35.5274 40.6328 35.5392C44.3786 37.2407 45.8674 41.4355 46.9191 45.1222C47.9116 48.7852 47.9825 53.4763 46.5646 56.773L46.4819 56.1468C46.4819 56.1231 46.5173 56.1113 46.5291 56.1468L46.6945 56.7612H46.5764C47.9707 49.376 47.3681 40.2303 40.6092 35.6337L40.6683 35.6219L40.5146 35.8582C40.5146 35.8582 40.4674 35.8582 40.4792 35.8346L40.4556 35.811Z" fill="#3C2B1F"/>
<path d="M40.6446 36.5436L40.7628 36.2364C40.7628 36.2364 40.81 36.2009 40.8337 36.2127C43.965 37.867 45.2411 41.4001 46.2691 44.5668C47.2381 47.6981 47.5807 51.7275 46.5291 54.6579L46.4227 54.2325C46.4464 54.0789 46.6236 54.6343 46.6354 54.6225C46.5882 51.5148 46.8954 47.9345 46.0328 44.6377C45.2884 41.3883 43.3387 38.4106 40.7746 36.3073L40.8455 36.2836L40.68 36.5672C40.68 36.5672 40.6328 36.5672 40.6446 36.5436Z" fill="#3C2B1F"/>
<path d="M40.8454 37.3117L40.9518 36.9808C40.9518 36.9808 40.999 36.9335 41.0227 36.9572C43.6104 38.5169 44.6621 41.4828 45.6546 44.1769C46.6354 46.9183 46.8954 49.9196 46.4109 52.7792C46.4109 52.8382 46.3164 52.8619 46.2927 52.8028C46.2927 52.7673 46.1037 52.3656 46.1509 52.3538C46.1864 52.3301 46.3873 52.7437 46.3991 52.7555L46.2809 52.7792C46.3045 49.896 46.08 47.0483 45.4183 44.2596C44.733 41.4828 42.996 39.0487 40.9636 37.0635L41.0463 37.0399L40.8809 37.3471C40.8809 37.3471 40.8336 37.3471 40.8336 37.3235L40.8454 37.3117Z" fill="#3C2B1F"/>
<path d="M41.0699 38.0561L41.1527 37.7489C41.1527 37.7489 41.2117 37.6898 41.2354 37.7134C43.3269 39.1195 44.1422 41.5773 45.0402 43.787C45.9501 46.0321 46.2927 48.5253 46.021 50.924C46.021 50.9831 45.9264 50.9949 45.9028 50.9476C45.9028 50.9122 45.7137 50.5931 45.761 50.5695C45.7965 50.5459 45.9973 50.8649 46.021 50.8767L45.9028 50.9122C45.6901 48.5253 45.4065 46.1857 44.8157 43.8697C44.2131 41.5537 42.7006 39.604 41.1763 37.8198L41.2708 37.7961L41.1172 38.0679C41.1172 38.0679 41.0699 38.0679 41.0699 38.0561Z" fill="#3C2B1F"/>
<path d="M41.2826 38.9541C41.318 38.8359 41.2826 38.5996 41.4126 38.576C41.7907 38.895 42.157 39.2613 42.476 39.6513C43.1614 40.3839 44.0121 42.6172 44.4257 43.5388C45.2292 45.3113 45.6073 47.2846 45.5128 49.2224C45.5128 49.2933 45.4065 49.317 45.371 49.2579C45.371 49.2224 45.1347 48.8798 45.182 48.8561C45.2056 48.8207 45.4892 49.1634 45.501 49.1752L45.3592 49.2224C45.0165 47.3318 44.6857 45.4767 44.2012 43.6334C43.7286 41.7546 42.3815 40.313 41.3653 38.7178L41.4835 38.6942C41.4717 38.6942 41.318 39.1077 41.2944 38.9777L41.2826 38.9541Z" fill="#3C2B1F"/>
<path d="M41.5071 40.0412C41.5307 39.8876 41.448 39.3558 41.708 39.5567C42.8541 40.5493 43.1495 42.0617 43.8467 43.3261C44.5084 44.6377 44.8747 46.0911 44.8629 47.5681C44.8629 47.639 44.7684 47.6627 44.7329 47.6036C44.7329 47.5681 44.532 47.32 44.5793 47.2964C44.5911 47.2609 44.8393 47.509 44.8511 47.509L44.7211 47.5681C44.3075 46.1856 43.9885 44.8149 43.6104 43.4324C43.2795 42.0145 42.2279 40.951 41.5543 39.6867L41.7316 39.6512C41.6725 39.7339 41.5898 40.1357 41.5189 40.053L41.5071 40.0412Z" fill="#3C2B1F"/>
<path d="M41.8498 41.081C41.578 39.9349 42.7242 41.6128 42.7478 41.9436C42.925 42.9244 44.3548 44.5432 44.0003 46.0439C43.9531 46.0439 43.9176 45.9375 43.894 45.9139C43.8703 45.8194 44.0121 45.9375 44.0358 45.9493L43.9412 45.9966C43.504 45.1458 43.2559 44.2714 43.0432 43.3498C42.8896 42.3926 42.0743 41.7782 41.8143 40.8565L42.0034 40.8093C41.9679 40.8565 41.9207 41.1519 41.8498 41.081Z" fill="#3C2B1F"/>
<path d="M42.6061 42.5226C43.1024 44.2832 43.1142 44.2714 42.1926 42.7235C42.0035 42.4399 42.4998 42.2036 42.6061 42.5226Z" fill="#3C2B1F"/>
</g>
<mask id="mask3_1_1279" style="mask-type:luminance" maskUnits="userSpaceOnUse" x="34" y="31" width="13" height="38">
<path d="M36.7569 45.134C37.3359 46.8237 38.3639 48.3953 39.8055 49.8369C42.0506 52.0938 43.4331 54.6815 43.9057 57.5529C44.3666 60.4242 43.9057 63.4492 42.5351 66.5569C42.4996 66.6514 42.476 66.7341 42.476 66.8168C42.476 66.8996 42.4996 66.9705 42.5587 67.0414C42.5941 67.1004 42.6414 67.1477 42.7005 67.195L42.5232 67.4077C42.4405 67.3486 42.3814 67.2777 42.3224 67.195C42.2515 67.0768 42.2042 66.9586 42.2042 66.8287C42.2042 66.6987 42.2278 66.5687 42.2869 66.4387C43.634 63.3783 44.0948 60.4006 43.634 57.5883C43.1731 54.7761 41.8261 52.2356 39.6046 50.0259C38.1394 48.5607 37.0996 46.9419 36.4969 45.2285C35.8943 43.5034 35.7407 41.6482 36.0243 39.6985C36.237 38.2688 36.6742 36.7917 37.3477 35.3029C37.9267 34.0267 38.5648 32.9869 38.9902 32.3488C39.0611 32.2425 39.1674 32.1479 39.2738 32.0889C39.3092 32.077 39.3329 32.0652 39.3683 32.0534L39.4628 32.3134C39.4392 32.3134 39.4156 32.337 39.4037 32.337C39.321 32.3724 39.262 32.4315 39.2147 32.5024C38.7893 33.1287 38.163 34.1449 37.5841 35.4092C36.9223 36.8744 36.4851 38.316 36.2724 39.7222C36.0007 41.6246 36.1543 43.4325 36.7333 45.1222L36.7569 45.134ZM35.339 39.5922C35.8352 36.2009 37.4777 33.3532 38.423 31.9589C38.5884 31.7107 38.8247 31.5217 39.1083 31.4153C39.132 31.4153 39.1438 31.4035 39.1438 31.4035L39.0493 31.1436C39.0493 31.1436 39.0256 31.1436 39.002 31.1554C38.6711 31.2854 38.3994 31.5099 38.1985 31.8053C37.2532 33.2232 35.5753 36.1064 35.0672 39.5567C34.9608 40.2421 34.9136 40.9038 34.9136 41.5655C34.9136 44.9804 36.2606 48.0526 38.9193 50.7113C41.318 53.11 42.6296 55.875 42.8187 58.9118C42.9604 61.1805 42.476 63.591 41.3889 66.0488C41.0462 66.8168 41.2589 67.644 41.9088 68.1639L42.086 67.9512C41.6607 67.6203 41.3062 66.9468 41.6488 66.167C42.7596 63.6619 43.244 61.2278 43.0904 58.9118C42.9014 55.7923 41.5543 52.98 39.1083 50.534C36.0007 47.4264 34.7245 43.7515 35.3271 39.604L35.339 39.5922ZM40.4908 49.1397C37.9031 46.552 36.816 43.4915 37.2414 40.0648C37.584 37.288 38.8484 34.8775 39.8528 33.3177L39.7464 33.0342C39.7464 33.0342 39.6992 33.0578 39.6755 33.0814C38.6357 34.6648 37.3241 37.158 36.9578 40.0294C36.5206 43.5624 37.6313 46.6819 40.29 49.3406C42.5114 51.5621 43.9294 54.1025 44.4966 56.8912C45.0637 59.6798 44.7801 62.6339 43.6458 65.6707C43.6222 65.7297 43.6458 65.8006 43.6931 65.8361L44.0948 65.2098C45.0756 62.3148 45.3001 59.5026 44.7565 56.8321C44.1775 53.9962 42.7359 51.4084 40.479 49.1515L40.4908 49.1397ZM39.6519 32.7624L39.5574 32.5024C39.4983 32.5261 39.451 32.5615 39.4156 32.6088C38.3167 34.2394 36.9223 36.8035 36.5088 39.8049C35.9889 43.5388 37.1468 46.8592 39.9591 49.6714C42.2396 51.9638 43.6458 54.5988 44.1184 57.4938C44.5911 60.4006 44.1184 63.4728 42.7359 66.6278C42.7123 66.6869 42.7005 66.7459 42.7005 66.805C42.7005 66.8641 42.7359 66.8996 42.7477 66.9232C42.7714 66.9586 42.8068 66.9941 42.8423 67.0295L43.0195 66.8168H43.0077L42.9841 66.7932C42.9841 66.7932 42.9841 66.7814 42.9959 66.7578C44.4138 63.5437 44.8865 60.4242 44.402 57.4584C43.9176 54.5043 42.4878 51.822 40.16 49.4942C37.4186 46.741 36.2843 43.5034 36.7805 39.864C37.1823 36.9217 38.5648 34.393 39.6519 32.7742H39.6637L39.6519 32.7624ZM45.6782 61.3932C45.6782 61.4523 45.7136 61.5232 45.7727 61.535L46.009 60.7315C46.1508 58.5573 45.8554 56.4658 45.1346 54.4925C44.3311 52.2947 43.0077 50.2623 41.1762 48.4426C39.9355 47.2019 39.0847 45.9139 38.6002 44.5077C38.104 43.1016 37.9858 41.6246 38.2221 40.0058C38.3757 38.9777 38.6711 37.9143 39.1083 36.839C39.4274 36.0473 39.8173 35.2556 40.2782 34.4876L40.1836 34.1921C40.16 34.1921 40.1245 34.2158 40.1127 34.2394C39.6283 35.0547 39.2029 35.8937 38.872 36.7326C38.4348 37.8316 38.1276 38.9187 37.974 39.9703C37.7377 41.6246 37.8676 43.1843 38.3639 44.6141C38.872 46.0557 39.7346 47.3791 41.0108 48.6553C42.795 50.4513 44.1066 52.4483 44.8983 54.6106C45.6782 56.7612 45.95 59.0417 45.7018 61.4168L45.6782 61.3932ZM44.7447 55.8041C45.4419 58.2973 45.4537 60.9442 44.7683 63.6737C44.7565 63.7328 44.792 63.8037 44.851 63.8273L45.1937 63.0829C45.7254 60.5306 45.6664 58.061 45.0165 55.7332C44.3075 53.1927 42.9014 50.8531 40.8335 48.797C38.423 46.3865 37.3714 43.5506 37.7022 40.3602C37.974 37.737 39.1202 35.4092 40.0655 33.8967L40.0064 33.7313L39.9591 33.6132C39.9591 33.6132 39.9 33.6368 39.8882 33.6604C38.9193 35.1965 37.714 37.607 37.4304 40.3366C37.0878 43.6097 38.1749 46.5283 40.6445 48.9979C42.6769 51.0303 44.0594 53.3227 44.7565 55.8159L44.7447 55.8041ZM41.3298 48.3008C42.8659 49.8369 44.0712 51.5384 44.8983 53.3463C45.7136 55.1424 46.1745 57.0566 46.2454 59.0299C46.2454 59.089 46.2926 59.1481 46.3635 59.1599L46.4817 58.3682C46.3399 56.584 45.8791 54.8588 45.1346 53.2281C44.2957 51.3848 43.0786 49.6596 41.5189 48.0999C39.4865 46.0675 38.5057 43.7042 38.6002 41.081C38.6711 39.1786 39.2974 37.1698 40.4672 35.102L40.3727 34.7948C40.3727 34.7948 40.3136 34.8302 40.29 34.8539C39.0611 36.9926 38.3994 39.0841 38.3167 41.0692C38.2103 43.7751 39.2265 46.1975 41.318 48.2889L41.3298 48.3008ZM39.262 50.3686C41.7316 52.8382 43.1022 55.6741 43.3149 58.7818C43.4804 61.1569 42.9841 63.6619 41.8497 66.2497C41.7434 66.4978 41.7079 66.7459 41.7434 66.9823C41.7788 67.195 41.8615 67.3604 41.9206 67.4549C42.0033 67.5731 42.0979 67.6912 42.216 67.774L42.3814 67.5613C42.2869 67.4904 42.2042 67.3958 42.1333 67.3013C42.086 67.2186 42.0151 67.1004 41.9915 66.935C41.9561 66.7459 41.9915 66.5451 42.0742 66.356C43.2322 63.7328 43.7285 61.1805 43.5631 58.7582C43.3386 55.5796 41.9561 52.6964 39.4274 50.1677C37.9385 48.6789 36.8751 47.0364 36.2724 45.2876C35.6698 43.5388 35.5044 41.6482 35.788 39.6631C36.0007 38.2215 36.4497 36.7208 37.1232 35.2202C37.7022 33.9204 38.3521 32.8805 38.7893 32.2307C38.8838 32.1007 39.0138 31.9825 39.1556 31.9116L39.2738 31.8525L39.1792 31.5926C39.1792 31.5926 39.0729 31.628 39.0256 31.6635C38.8366 31.758 38.683 31.8998 38.5648 32.077C38.1158 32.7388 37.4659 33.7904 36.8751 35.1138C36.1897 36.6381 35.7289 38.1506 35.5162 39.6276C35.2208 41.6482 35.3862 43.5861 36.0007 45.3821C36.6269 47.1664 37.7022 48.8561 39.2265 50.3686H39.262ZM45.0756 52.0111C44.2484 50.4986 43.1731 49.0806 41.8615 47.769C39.9946 45.9021 39.0611 43.7397 39.0847 41.341C39.1083 39.5685 39.6283 37.6898 40.6681 35.7637L40.5736 35.4447C40.5736 35.4447 40.5145 35.4801 40.4908 35.5156C39.4038 37.5243 38.8366 39.4976 38.8129 41.341C38.7893 43.8106 39.7582 46.0439 41.6725 47.9581C42.9604 49.2461 44.0239 50.6522 44.8392 52.141C45.6427 53.6063 46.1981 55.1778 46.4935 56.7848C46.5053 56.8439 46.5644 56.8912 46.6235 56.8912L46.6471 56.1468C46.3281 54.717 45.7963 53.3345 45.0874 52.0111H45.0756ZM44.9574 50.8413C44.2012 49.636 43.2795 48.4898 42.2042 47.4145C41.1289 46.3393 40.3963 45.2285 39.9709 44.0469C39.5574 42.8653 39.451 41.6128 39.6519 40.2066C39.7582 39.5331 39.9237 38.8241 40.16 38.1151C40.3491 37.5716 40.5854 37.0044 40.8453 36.4491L40.7508 36.1064C40.7154 36.1182 40.6799 36.1418 40.6681 36.1773C40.3609 36.7917 40.1009 37.418 39.9 38.0206C39.6519 38.7414 39.4746 39.4622 39.3801 40.1475C39.1674 41.5891 39.2738 42.8889 39.711 44.1178C40.1364 45.3467 40.8926 46.4692 42.0033 47.58C43.1141 48.6907 43.9766 49.7778 44.7211 50.9594C45.4537 52.1292 46.0445 53.3699 46.4581 54.6579C46.4817 54.717 46.529 54.7524 46.588 54.7524L46.5408 54.0553C46.139 52.9446 45.6073 51.8575 44.9574 50.8176V50.8413ZM44.8156 49.766C44.1657 48.8207 43.3976 47.9226 42.5469 47.0719C41.5307 46.0439 40.8453 45.0158 40.4436 43.8933C40.0536 42.7826 39.9591 41.6009 40.1482 40.2775C40.2309 39.734 40.3609 39.155 40.5381 38.576C40.6799 38.127 40.8571 37.6661 41.058 37.2053L40.9635 36.8626C40.9635 36.8626 40.8926 36.8981 40.869 36.9453C40.6326 37.4653 40.4318 37.997 40.2663 38.5051C40.0773 39.0959 39.9473 39.6867 39.8646 40.2539C39.6637 41.6128 39.7701 42.8417 40.1836 43.9878C40.5854 45.1458 41.3062 46.2211 42.3578 47.2609C43.1968 48.0999 43.9412 48.9861 44.5911 49.9196C45.2292 50.8413 45.7845 51.8102 46.2217 52.8146C46.2454 52.8618 46.2926 52.8973 46.3399 52.8973H46.3635L46.2454 52.2356C45.8318 51.3848 45.3473 50.5695 44.8038 49.7778L44.8156 49.766ZM44.6502 48.7261C44.1184 48.0408 43.5276 47.3673 42.8895 46.7292C41.9324 45.7721 41.2825 44.7913 40.9044 43.7515C40.5381 42.7117 40.4436 41.6009 40.6208 40.3602C40.6799 39.9349 40.7863 39.4858 40.9044 39.0486C41.0108 38.706 41.1171 38.3515 41.2471 38.0088L41.1644 37.6425C41.1644 37.6425 41.0817 37.6898 41.0698 37.7252C40.9044 38.1388 40.7626 38.5642 40.6445 38.9659C40.5145 39.4268 40.4199 39.8758 40.3491 40.313C40.16 41.5891 40.2545 42.7471 40.6445 43.8342C41.0226 44.9213 41.6961 45.9257 42.6887 46.9183C43.3149 47.5445 43.8939 48.2062 44.4257 48.8916C44.9456 49.5651 45.4182 50.2741 45.8318 50.9831C45.8554 51.0185 45.9027 51.054 45.95 51.054C45.9618 51.054 45.9736 51.054 45.9854 51.054L45.8082 50.4277C45.4537 49.8487 45.0637 49.2815 44.6383 48.7261H44.6502ZM44.4611 47.7218C44.083 47.2609 43.6694 46.8119 43.2322 46.3865C42.3106 45.4649 41.7079 44.555 41.3652 43.5979C41.0226 42.6408 40.9399 41.6009 41.1053 40.4311C41.1526 40.1357 41.2116 39.8403 41.2825 39.5331C41.3298 39.3322 41.3889 39.1077 41.4598 38.895L41.3771 38.5287V38.5051C41.3771 38.5051 41.2943 38.5523 41.2707 38.5996C41.1762 38.895 41.0935 39.1904 41.0108 39.474C40.9399 39.7812 40.869 40.1003 40.8335 40.3957C40.6563 41.6128 40.7508 42.688 41.1053 43.6924C41.4716 44.6968 42.0979 45.6421 43.0432 46.5874C43.4685 47.0128 43.8821 47.45 44.2602 47.899C44.6383 48.348 44.9928 48.8089 45.3237 49.2815C45.3473 49.317 45.3946 49.3406 45.43 49.3406C45.4537 49.3406 45.4655 49.3406 45.4773 49.3406L45.2646 48.738C45.0047 48.3953 44.7447 48.0644 44.4611 47.7336V47.7218ZM44.2484 46.741C44.0357 46.5047 43.8112 46.2684 43.5749 46.0439C42.7241 45.1813 42.1451 44.3305 41.8261 43.4325C41.507 42.5344 41.4243 41.5773 41.5898 40.4902C41.6134 40.3484 41.637 40.2066 41.6607 40.0648C41.6607 40.0176 41.6843 39.9703 41.6843 39.923L41.5898 39.4858C41.5898 39.4858 41.4952 39.5331 41.4834 39.5804C41.448 39.7222 41.4125 39.8758 41.3889 40.0176C41.3652 40.1594 41.3298 40.313 41.3062 40.4548C41.1407 41.5773 41.2235 42.5817 41.5661 43.527C41.9088 44.4605 42.4996 45.3467 43.3858 46.2329C43.6103 46.4574 43.8348 46.6938 44.0475 46.9301C44.2602 47.1664 44.4729 47.4027 44.6738 47.6391C44.6974 47.6745 44.7447 47.6863 44.7801 47.6863C44.8038 47.6863 44.8156 47.6863 44.8392 47.6745L44.5793 47.0955C44.4729 46.9773 44.3666 46.8592 44.2602 46.741H44.2484ZM42.3224 43.3852C42.0624 42.7117 41.9561 42.0027 42.0033 41.211L41.8733 40.6556C41.8143 40.6675 41.767 40.7147 41.767 40.7738C41.6488 41.7664 41.7552 42.6526 42.0624 43.4797C42.3696 44.3069 42.925 45.0867 43.7285 45.8902L43.8939 46.0675C43.8939 46.0675 43.953 46.1029 43.9885 46.1029C44.0121 46.1029 44.0357 46.1029 44.0475 46.0793L43.7403 45.5121C43.055 44.8032 42.5941 44.0942 42.3106 43.3734L42.3224 43.3852ZM42.3578 42.4872C42.2987 42.5108 42.2515 42.5817 42.2633 42.6526C42.3224 42.9244 42.4051 43.1843 42.5114 43.4443C42.6178 43.7042 42.7478 43.9524 42.9014 44.2123C42.925 44.2478 42.9723 44.2714 43.0195 44.2714C43.0432 44.2714 43.055 44.2714 43.0786 44.2596L42.7123 43.4325L42.3696 42.499L42.3578 42.4872Z" fill="white"/>
</mask>
<g mask="url(#mask3_1_1279)">
<path d="M40.0773 31.2499C38.2221 30.8718 37.6077 33.5068 36.8633 34.7593C35.4689 37.8906 34.7836 41.471 35.7171 44.8268C36.367 47.3791 37.9976 49.4824 39.8055 51.3494C43.5158 55.3433 44.1184 61.3814 41.6252 66.167C41.2116 66.935 41.637 67.9158 42.4169 68.3057C41.5543 68.1166 40.9871 66.935 41.4007 66.0724C43.4567 61.3459 43.3976 55.3551 39.6755 51.4675C37.8086 49.6242 36.0243 47.5445 35.3035 44.945C34.2519 41.5182 34.9727 37.7607 36.5679 34.6175C37.3123 33.3768 38.3403 30.5055 40.0773 31.2499Z" fill="#3C2B1F"/>
<path d="M42.4524 67.7976C41.448 67.2777 41.8262 66.2969 42.1688 65.517C42.4642 64.7372 42.6887 63.9337 42.8778 63.1183C44.1776 58.1437 42.4524 52.8736 38.5294 49.5651C33.7438 44.7441 34.8191 36.969 38.7539 31.9707C39.0493 31.6516 39.6283 31.498 39.9828 31.6871C39.5811 31.6516 39.1202 31.7225 38.8603 32.0652C35.4099 37.1698 34.2992 44.5077 38.7185 49.3879C43.2677 53.7126 45.1229 59.7034 42.3815 65.5879C42.2397 65.9897 41.968 66.3442 41.9325 66.7341C41.8971 67.1241 42.1216 67.5376 42.4761 67.7503C42.4997 67.7621 42.476 67.8094 42.4524 67.7858V67.7976Z" fill="#3C2B1F"/>
<path d="M43.0195 67.4668C42.5941 67.4904 42.1569 67.0414 42.3105 66.5805L42.7359 65.4226C44.7329 60.0934 43.8466 53.5945 39.3801 49.766C34.2755 45.1222 35.1499 37.229 39.2501 32.2425C39.4155 32.1125 39.7346 32.0652 39.8882 32.1834C39.3919 32.148 39.2029 32.3843 38.9784 32.8097C35.7289 37.9497 34.9963 45.0041 39.5692 49.6006C43.7994 53.6299 45.4655 60.0934 42.9722 65.5171C42.7477 66.167 41.897 67.2186 43.0431 67.4313C43.0668 67.4313 43.0668 67.4786 43.0431 67.4786L43.0195 67.4668Z" fill="#3C2B1F"/>
<path d="M43.0197 66.9705C42.7124 66.9232 42.8188 66.6514 42.9015 66.4624L43.1024 65.907L43.4569 64.7963C45.1111 59.6208 44.1895 53.4763 40.0183 49.7306C34.961 45.3231 35.4927 38.0206 39.2739 32.9633L39.4511 32.727C39.4866 32.6324 39.6284 32.5615 39.7229 32.6088C39.7347 32.6088 39.7466 32.6206 39.7347 32.6324C39.7347 32.6324 39.7229 32.6442 39.7111 32.6442C39.5102 32.597 39.4748 32.8688 39.3566 33.0105L39.0612 33.5186C36.0244 38.5878 35.6936 45.2167 40.1956 49.5415C44.4612 53.7835 45.9383 60.4715 43.2324 65.9543L42.9842 66.486C42.9015 66.6396 42.7715 66.8405 43.0078 66.9114C43.0433 66.9114 43.0433 66.9587 43.0078 66.9587L43.0197 66.9705Z" fill="#3C2B1F"/>
<path d="M44.1421 65.3989L43.8113 65.7534C43.8113 65.7534 43.764 65.777 43.7522 65.7534C44.5911 62.9293 45.0283 59.9398 44.4848 57.0448C44.0476 54.1498 42.5351 51.4321 40.3964 49.4233C39.3211 48.3953 38.364 47.2019 37.7259 45.8312C35.7053 41.66 37.1705 36.6972 39.7701 33.1287C39.7701 33.1287 39.7937 33.1169 39.8056 33.1169L39.9946 33.1878C39.9946 33.1878 40.0182 33.1996 40.0064 33.2114C40.0064 33.2587 39.8056 33.1641 39.7819 33.176L39.8174 33.1641C36.6388 38.0915 36.0362 44.9568 40.5736 49.2343C44.8393 53.4881 46.4463 60.1879 43.8113 65.7179L43.7404 65.6707L44.0949 65.3516C44.0949 65.3516 44.1421 65.3635 44.1303 65.3871L44.1421 65.3989Z" fill="#3C2B1F"/>
<path d="M45.1937 63.3783L44.9455 63.7565C44.9455 63.7565 44.9101 63.7801 44.8865 63.7683C45.3473 61.0978 45.4064 58.3092 44.6619 55.6978C44.0239 53.0746 42.5114 50.6759 40.5026 48.8443C36.0715 44.9213 36.6033 38.1034 40.0063 33.7077C40.03 33.7195 40.2072 33.7668 40.1836 33.8022C40.1836 33.8377 40.0063 33.7668 39.9827 33.7668L40.0182 33.755C37.2177 38.3633 36.6151 44.6023 40.6799 48.6671C44.5674 52.531 46.7889 58.3682 44.9455 63.7328L44.8628 63.6974L45.1464 63.3547C45.1464 63.3547 45.2055 63.3547 45.1819 63.3783H45.1937Z" fill="#3C2B1F"/>
<path d="M46.0328 61.0388L45.8437 61.4405C45.8437 61.4405 45.8083 61.476 45.7847 61.4642C45.8437 58.9946 45.5601 56.5013 44.6621 54.1972C43.8586 51.8694 42.3698 49.8251 40.5264 48.1591C36.568 44.4488 37.2651 38.387 40.2192 34.2986C40.2428 34.3104 40.4083 34.3577 40.3846 34.4049C40.3728 34.4404 40.2192 34.3577 40.1956 34.3577C32.9404 48.9271 47.8643 48.1118 45.8556 61.4287L45.7728 61.4051C45.7965 61.4051 46.0328 60.897 46.0446 61.0506L46.0328 61.0388Z" fill="#3C2B1F"/>
<path d="M46.5763 58.5809L46.4345 59.0536C46.4345 59.0536 46.34 59.1008 46.3282 59.0536C46.1155 56.8439 45.4892 54.717 44.5321 52.7319C43.6341 50.664 42.1452 49.0216 40.55 47.4618C37.2651 44.0824 37.7378 38.4697 40.4082 34.913C40.4201 34.9248 40.6564 35.0193 40.5382 35.0429L40.3728 34.972C34.1574 47.9227 46.6118 47.8399 46.4109 59.0418L46.3045 59.0299L46.5054 58.5809C46.5054 58.5809 46.5527 58.5809 46.5527 58.5927L46.5763 58.5809Z" fill="#3C2B1F"/>
<path d="M46.7535 56.3595L46.6708 56.773C46.6708 56.773 46.5881 56.8321 46.5763 56.773C46.0918 54.8588 45.3119 53.0627 44.343 51.373C43.4331 49.5887 41.9916 48.2535 40.6563 46.7883C37.915 43.6806 38.3167 38.7296 40.6327 35.551L40.7981 35.6574C40.8572 35.7637 40.6209 35.6219 40.5972 35.6219C35.5044 47.4854 45.4655 47.1428 46.6826 56.7612H46.5763L46.7062 56.3595C46.7062 56.3595 46.7535 56.3476 46.7535 56.3595Z" fill="#3C2B1F"/>
<path d="M46.6826 54.2443L46.6472 54.6461C46.6472 54.6461 46.5644 54.717 46.5408 54.6579C45.8909 53.0509 45.052 51.5621 44.1067 50.1323C43.2323 48.6198 41.897 47.5091 40.7981 46.162C38.4467 43.3616 38.943 39.0841 40.8336 36.2245C40.8454 36.26 41.0226 36.3309 40.9872 36.3782C40.9635 36.4136 40.8099 36.2954 40.7863 36.2954C36.7924 47.2609 44.3784 46.2093 46.6353 54.6225H46.529L46.6235 54.2325C46.6235 54.2325 46.6708 54.2089 46.6708 54.2325L46.6826 54.2443Z" fill="#3C2B1F"/>
<path d="M46.3989 52.4247V52.7673C46.3989 52.7673 46.328 52.8382 46.3044 52.791C45.5836 51.4794 44.7565 50.2505 43.8939 49.057C43.0786 47.7927 41.9088 46.8356 41.0225 45.6185C39.0492 43.078 39.5101 39.6395 40.9753 36.9808C40.9753 36.9572 41.0107 36.9454 41.0344 36.969C41.0462 37.0044 41.2234 37.1108 41.1998 37.1462C41.1762 37.1699 41.0107 37.0399 40.9871 37.0399C40.2781 39.6277 39.5219 42.9126 41.2352 45.4885C41.956 46.8001 43.2085 47.6863 44.1775 48.8443C45.1582 49.9905 45.9027 51.3376 46.3989 52.7555H46.2926L46.3517 52.4365C46.3517 52.4128 46.3989 52.4128 46.3989 52.4365V52.4247Z" fill="#3C2B1F"/>
<path d="M45.9855 50.6168L46.021 50.924C46.021 50.924 45.9973 50.9831 45.9737 50.9831C45.0993 50.0732 44.473 48.9389 43.6104 48.0172C42.098 46.0557 39.971 44.1533 40.1601 41.4237C40.231 40.1948 40.5737 38.6942 41.2354 37.7371C41.2472 37.7725 41.4244 37.9025 41.389 37.9379C41.3653 37.9734 41.1999 37.808 41.1763 37.808C40.7745 39.9703 40.1601 42.7353 41.4717 44.945C42.0034 46.0793 43.0078 46.8828 43.8822 47.7809C44.8275 48.6435 45.3947 49.8133 46.021 50.8886L45.9146 50.9122C45.9146 50.9122 45.9382 50.4868 45.9973 50.605L45.9855 50.6168Z" fill="#3C2B1F"/>
<path d="M45.4183 48.7261C45.4537 48.9034 45.6428 49.4233 45.3592 49.2461C43.5041 46.9537 40.6918 44.8031 40.6445 41.6128C40.6445 40.5611 40.9399 39.5449 41.3653 38.6114C41.3771 38.576 41.4244 38.576 41.448 38.6114C41.6844 38.9186 41.6135 38.895 41.3771 38.6823C41.2826 40.4548 40.7745 42.5344 41.7553 44.4487C42.5824 46.3038 44.6266 47.2846 45.5128 49.1515L45.3592 49.2106C45.3828 49.0806 45.3356 48.6671 45.4301 48.738L45.4183 48.7261Z" fill="#3C2B1F"/>
<path d="M44.7329 47.131C44.7683 47.2728 45.0165 47.7336 44.7329 47.6391C43.5395 46.6583 42.6414 45.4058 41.8261 44.106C40.9871 42.7708 40.9635 41.0102 41.578 39.5922C41.5898 39.5449 41.6607 39.5449 41.6843 39.5922C41.6843 39.6277 41.8379 39.8167 41.7907 39.8404C41.767 39.864 41.6016 39.6749 41.578 39.6749L41.6843 39.6513C41.5543 41.1638 41.5307 42.6054 42.0624 43.9997C42.5351 45.4885 44.1184 46.1621 44.8511 47.5091L44.6856 47.58C44.7093 47.4973 44.6384 47.0837 44.7447 47.1428L44.7329 47.131Z" fill="#3C2B1F"/>
<path d="M43.9649 45.713C44.532 46.7174 42.9605 45.2995 42.9014 44.9922C42.1924 43.6925 41.1999 42.3218 41.8261 40.7857C41.8261 40.7029 41.9443 40.6675 41.9797 40.7502C41.9797 40.7857 42.0861 40.9983 42.0388 41.0102C42.0152 41.022 41.8616 40.8447 41.8379 40.8447L41.9915 40.8093C42.2161 42.1918 42.0388 43.8106 43.1732 44.7914C43.5158 45.1222 43.7876 45.5003 44.083 45.9139L43.9294 45.9966C43.9294 45.9966 43.894 45.6658 43.9885 45.713H43.9649Z" fill="#3C2B1F"/>
<path d="M42.8305 44.2478L42.5469 43.4443L42.4052 42.6172C42.6651 43.1962 42.8305 43.4916 43.2205 43.9997C43.4568 44.2833 42.9723 44.5787 42.8305 44.236V44.2478Z" fill="#3C2B1F"/>
</g>
</g>
</g>
<defs>
<clipPath id="clip0_1_1279">
<rect width="73.9698" height="100" fill="white" transform="translate(0.648315 0.722595)"/>
</clipPath>
</defs>
</svg>
