<svg width="31" height="42" viewBox="0 0 31 42" fill="none" xmlns="http://www.w3.org/2000/svg">
<path fill-rule="evenodd" clip-rule="evenodd" d="M0.842529 15C0.842529 6.71573 7.55826 0 15.8425 0C24.1268 0 30.8425 6.71573 30.8425 15V27C30.8425 35.2843 24.1268 42 15.8425 42C7.55826 42 0.842529 35.2843 0.842529 27V15ZM15.8425 2C8.66283 2 2.84253 7.8203 2.84253 15V27C2.84253 34.1797 8.66283 40 15.8425 40C23.0222 40 28.8425 34.1797 28.8425 27V15C28.8425 7.8203 23.0222 2 15.8425 2ZM10.1354 26.6647C10.5259 26.2742 11.1591 26.2742 11.5496 26.6647L15.8425 30.9576L20.1354 26.6647C20.5259 26.2742 21.1591 26.2742 21.5496 26.6647C21.9402 27.0552 21.9402 27.6884 21.5496 28.0789L16.5496 33.0789C16.1591 33.4695 15.5259 33.4695 15.1354 33.0789L10.1354 28.0789C9.7449 27.6884 9.7449 27.0552 10.1354 26.6647ZM15.8425 19.8718C15.2902 19.8718 14.8425 20.3195 14.8425 20.8718V26.3718C14.8425 26.9241 15.2902 27.3718 15.8425 27.3718C16.3948 27.3718 16.8425 26.9241 16.8425 26.3718V20.8718C16.8425 20.3195 16.3948 19.8718 15.8425 19.8718ZM14.8425 13.8718C14.8425 13.3195 15.2902 12.8718 15.8425 12.8718C16.3948 12.8718 16.8425 13.3195 16.8425 13.8718V16.8718C16.8425 17.4241 16.3948 17.8718 15.8425 17.8718C15.2902 17.8718 14.8425 17.4241 14.8425 16.8718V13.8718ZM15.8425 8.37183C15.2902 8.37183 14.8425 8.81954 14.8425 9.37183V9.87183C14.8425 10.4241 15.2902 10.8718 15.8425 10.8718C16.3948 10.8718 16.8425 10.4241 16.8425 9.87183V9.37183C16.8425 8.81954 16.3948 8.37183 15.8425 8.37183Z" fill="white"/>
</svg>
